<svg width="60" height="61" viewBox="0 0 60 61" fill="none" xmlns="http://www.w3.org/2000/svg">
<path d="M35.1792 2.34195L34.0257 9.09667C33.9595 9.10277 33.8932 9.10887 33.827 9.11584L34.835 2.28706C34.8743 2.05967 35.2123 2.1102 35.1792 2.34195Z" fill="white"/>
<path d="M39.4926 3.40053L37.589 9.0662C37.5001 9.05923 37.4113 9.054 37.3224 9.0479L39.0884 3.27071C39.1773 3.00324 39.5763 3.12783 39.4926 3.40053Z" fill="white"/>
<path d="M43.5274 5.07503L41.1724 9.63423C41.0618 9.60635 40.9511 9.58021 40.8396 9.55494L43.0778 4.85286C43.2294 4.5549 43.6737 4.77097 43.5274 5.07503Z" fill="white"/>
<path d="M47.2223 7.30803L44.6739 10.827C44.545 10.7695 44.4152 10.7146 44.2853 10.6606L46.7475 6.97783C46.9705 6.66244 47.4418 6.98654 47.2223 7.30803Z" fill="white"/>
<path d="M50.5261 10.0446L47.9786 12.6435C47.8383 12.5494 47.6971 12.4571 47.5543 12.3664L50.0486 9.5959C50.3509 9.2779 50.8266 9.71962 50.5261 10.0446Z" fill="white"/>
<path d="M53.3889 13.2316L50.9712 15.0586C50.8292 14.9218 50.6855 14.7868 50.54 14.6543L52.935 12.6592C53.3236 12.356 53.7749 12.9188 53.3889 13.2316Z" fill="white"/>
<path d="M55.7631 16.8202L53.5362 18.0304C53.4046 17.8465 53.2705 17.6653 53.1337 17.4859L55.3588 16.1215C55.8336 15.8514 56.2362 16.5414 55.7631 16.8202Z" fill="white"/>
<path d="M57.5936 20.7591L55.5584 21.4944C55.4512 21.2635 55.3405 21.0353 55.2247 20.8096L57.2695 19.9366C57.8306 19.7214 58.1529 20.5326 57.5936 20.7591Z" fill="white"/>
<path d="M58.8264 24.9916L56.9227 25.3627C56.8556 25.09 56.7825 24.82 56.704 24.5516L58.6138 24.055C59.2515 23.9139 59.4659 24.8409 58.8264 24.9916Z" fill="white"/>
<path d="M59.4066 29.4489L57.5308 29.5168C57.516 29.2127 57.4951 28.9096 57.4681 28.6081L59.3343 28.4147C60.0409 28.3685 60.1158 29.3948 59.4066 29.4489Z" fill="white"/>
<path d="M59.2899 34.0072L57.32 33.7685C57.3679 33.4487 57.4089 33.1272 57.442 32.8031L59.384 32.8972C60.1437 32.9652 60.054 34.0673 59.2899 34.0072Z" fill="white"/>
<path d="M58.4874 38.4026L56.3189 37.7884C56.4322 37.4677 56.5385 37.1445 56.6369 36.8169L58.768 37.2464C59.5617 37.4416 59.2864 38.5916 58.4874 38.4026Z" fill="white"/>
<path d="M57.0507 42.5445L54.6235 41.4336C54.8021 41.1287 54.9728 40.8194 55.1358 40.5058L57.5299 41.3718C58.3376 41.7055 57.8636 42.8721 57.0507 42.5445Z" fill="white"/>
<path d="M55.9974 46.1244C55.8136 46.4711 55.3632 46.5853 55.0373 46.3692L52.3565 44.6137C52.5926 44.3401 52.8209 44.0604 53.0413 43.7747L55.723 45.2148C56.0506 45.3899 56.1725 45.7977 55.9974 46.1244Z" fill="white"/>
<path d="M53.5475 49.7156C53.3018 50.0511 52.8113 50.1007 52.5029 49.8237L49.6374 47.2683C49.9205 47.0383 50.1967 46.7996 50.4668 46.5548L53.3977 48.7216C53.7139 48.955 53.7801 49.3994 53.5475 49.7156Z" fill="white"/>
<path d="M50.6097 52.9052C50.303 53.2189 49.7811 53.1971 49.5014 52.8582L46.5845 49.3576C46.9008 49.179 47.2127 48.9925 47.5185 48.7982L50.6036 51.8458C50.8972 52.1368 50.9007 52.6108 50.6097 52.9052Z" fill="white"/>
<path d="M47.2319 55.6444C46.8642 55.9258 46.3223 55.8222 46.0836 55.4257L43.3061 50.8622C43.6415 50.7411 43.9743 50.6121 44.3019 50.4745L47.3844 54.5414C47.6466 54.8882 47.5787 55.3813 47.2319 55.6444Z" fill="white"/>
<path d="M43.4595 57.88C43.0343 58.1179 42.4854 57.9262 42.2998 57.4766L39.91 51.7787C40.2507 51.7169 40.5879 51.6463 40.9224 51.5679L43.7844 56.7587C44.004 57.1577 43.8594 57.6605 43.4595 57.88Z" fill="white"/>
<path d="M39.3428 59.5572C38.8645 59.7393 38.3244 59.4535 38.2024 58.9569L36.4948 52.1281C36.825 52.1211 37.1534 52.1063 37.4801 52.0837L39.8508 58.4455C40.0172 58.8933 39.7898 59.3908 39.3428 59.5572Z" fill="white"/>
<path d="M34.9396 60.6157C34.416 60.729 33.9002 60.3474 33.8549 59.8133L33.1414 51.9469C33.4463 51.9878 33.753 52.0218 34.0623 52.0488L35.6375 59.5467C35.7394 60.0346 35.4275 60.5129 34.9396 60.6157Z" fill="white"/>
<path d="M30.3211 60.9982C29.7618 61.033 29.2896 60.5547 29.3296 59.9971L29.9047 51.2621C30.1782 51.3431 30.4544 51.418 30.7332 51.4877L31.208 60.0058C31.2368 60.5251 30.8395 60.9694 30.3211 60.9982Z" fill="white"/>
<path d="M27.6612 50.4649L26.7665 59.7906C26.7151 60.3291 26.2368 60.7237 25.6983 60.6715C25.1155 60.6201 24.7043 60.0503 24.8367 59.4813L26.9433 50.1486C27.1803 50.2584 27.4199 50.3647 27.6612 50.4649Z" fill="white"/>
<path d="M24.9604 49.1023L22.5035 58.9264C22.3667 59.4718 21.8143 59.8037 21.2689 59.6669C20.6765 59.524 20.3419 58.8706 20.5693 58.3052L24.3549 48.7268C24.5544 48.8557 24.7565 48.9803 24.9604 49.1023Z" fill="white"/>
<path d="M22.6115 47.48L18.4853 57.4627C18.2623 58.002 17.6446 58.2582 17.1053 58.0351C16.5163 57.7973 16.2733 57.0724 16.5965 56.527L22.1132 47.0732C22.277 47.2117 22.4434 47.3476 22.6115 47.48Z" fill="white"/>
<path d="M20.5902 45.6618L14.7686 55.4501C14.4593 55.9694 13.7876 56.1402 13.2674 55.8309C12.7482 55.5216 12.5774 54.8499 12.8867 54.3306C12.9085 54.2923 12.9364 54.2531 12.9634 54.2182C12.9634 54.2182 12.9634 54.2182 12.9643 54.2182L12.966 54.2156C12.966 54.2156 12.9721 54.2078 12.9747 54.2043L20.1886 45.2418C20.321 45.3838 20.4543 45.5241 20.5902 45.6626V45.6618Z" fill="white"/>
<path d="M18.8774 43.6884L11.4039 52.9375C11.011 53.4245 10.2974 53.4994 9.81039 53.1065C9.27371 52.6805 9.24757 51.8519 9.75376 51.3919L18.5611 43.2667C18.6648 43.4087 18.7702 43.549 18.8774 43.6884Z" fill="white"/>
<path d="M17.4573 41.5957L8.4382 49.9709C7.96425 50.4118 7.22282 50.3839 6.78198 49.9099C6.29408 49.3933 6.39253 48.5377 6.98149 48.1431L17.2159 41.1801C17.2944 41.3195 17.3754 41.458 17.4573 41.5957Z" fill="white"/>
<path d="M16.3186 39.4097L5.91944 46.5957C5.36969 46.9756 4.61519 46.8379 4.23533 46.2873C3.85547 45.7376 3.99313 44.9839 4.54288 44.6032C4.58644 44.5736 4.6361 44.5448 4.68228 44.5204C4.68228 44.5204 4.68315 44.5204 4.68664 44.5178C4.68664 44.5178 4.68751 44.5178 4.68838 44.5169L4.69448 44.5135L4.7058 44.5082L16.1408 39.0029C16.1983 39.1397 16.2576 39.2747 16.3186 39.4097Z" fill="white"/>
<path d="M15.4508 37.1462L3.89816 42.8537C3.27958 43.1595 2.53032 42.906 2.22451 42.2874C1.88124 41.6079 2.2489 40.7575 2.97813 40.5397L15.3271 36.7472C15.3672 36.8805 15.4081 37.0138 15.4508 37.1462Z" fill="white"/>
<path d="M14.847 34.8113L2.43011 38.7964C1.75229 39.0133 1.02741 38.6404 0.810475 37.9635C0.562172 37.2151 1.07185 36.4022 1.85074 36.295L14.7712 34.4123C14.7947 34.5456 14.82 34.6789 14.847 34.8113Z" fill="white"/>
<path d="M14.5055 32.3928L1.57196 34.4785C0.848829 34.5953 0.167519 34.103 0.050773 33.3799C-0.086883 32.5784 0.563062 31.8265 1.37506 31.8422L14.475 31.9842C14.4837 32.121 14.4942 32.2569 14.5055 32.3928Z" fill="white"/>
<path d="M14.4576 29.4654C14.4506 29.6083 14.4445 29.752 14.4402 29.8949L1.37679 30.003C0.622297 30.0099 0.00633053 29.4035 0.000231847 28.649C-0.0154505 27.8092 0.766923 27.1453 1.59286 27.2917L14.4576 29.4654Z" fill="white"/>
<path d="M14.7242 26.9998C14.6981 27.154 14.6745 27.3082 14.6519 27.4633L1.85075 25.6293C1.08319 25.5196 0.549992 24.8086 0.659769 24.0411C0.773901 23.182 1.67738 22.6271 2.49547 22.9085L14.7242 26.9998Z" fill="white"/>
<path d="M15.2705 24.5908C15.2208 24.7598 15.1746 24.9289 15.1302 25.0996L2.95375 21.4587C2.18967 21.2304 1.75579 20.4263 1.98406 19.6631C2.23149 18.8049 3.23951 18.3789 4.02799 18.7945L15.2705 24.5908Z" fill="white"/>
<path d="M16.1016 22.2315C16.0232 22.4179 15.9474 22.6053 15.8751 22.7943L4.63612 17.5529C3.89382 17.2079 3.5732 16.3262 3.91908 15.5848C4.29895 14.7467 5.39235 14.4653 6.13029 15.0106L16.1016 22.2315Z" fill="white"/>
<path d="M17.2342 19.9297C17.1175 20.1344 17.0042 20.3418 16.8945 20.5509L6.84819 13.9678C6.14597 13.5078 5.94907 12.5651 6.40995 11.8629C6.91963 11.0657 8.07663 10.9428 8.74487 11.6102L17.2342 19.9297Z" fill="white"/>
<path d="M18.6822 17.7115C18.5176 17.9328 18.3564 18.1576 18.2004 18.3858L9.54294 10.7512C8.89735 10.1814 8.83549 9.19599 9.40441 8.5504C10.0404 7.81246 11.2384 7.86038 11.8169 8.64101L18.6822 17.7115Z" fill="white"/>
<path d="M20.463 15.6109C20.2383 15.8444 20.0178 16.0831 19.8035 16.3271L12.6759 7.94925C12.1044 7.27752 12.1854 6.26863 12.8571 5.69709C13.6116 5.03931 14.8252 5.26757 15.2948 6.14839L20.463 15.6109Z" fill="white"/>
<path d="M22.5958 13.6742C22.2979 13.9103 22.006 14.1542 21.7211 14.4069L16.2044 5.61346C15.7235 4.84764 15.9552 3.83787 16.7211 3.35695C17.5853 2.80023 18.7859 3.21494 19.1283 4.18201L22.5958 13.6742Z" fill="white"/>
<path d="M25.1024 11.9561C24.7182 12.1818 24.3409 12.4187 23.9724 12.6662L20.0832 3.79694C19.7112 2.94923 20.0971 1.96124 20.9449 1.58922C21.9058 1.1536 23.0637 1.75911 23.2606 2.79327L25.1024 11.9561Z" fill="white"/>
<path d="M28.0019 10.5377C27.5201 10.7294 27.047 10.9385 26.5835 11.1641L24.2608 2.55715C24.0134 1.64235 24.5544 0.701412 25.4692 0.454851C26.3832 0.20829 27.3241 0.749331 27.5715 1.66326C27.6029 1.78001 27.6212 1.90459 27.6282 2.02047V2.03441L28.0019 10.5377Z" fill="white"/>
<path d="M32.1594 1.95251L31.3056 9.51923C30.721 9.64818 30.1451 9.80152 29.5797 9.97751L28.6745 1.95251C28.5656 0.989794 29.2582 0.122039 30.2201 0.0131335C31.323 -0.125394 32.2954 0.853009 32.1594 1.95251Z" fill="white"/>
</svg>
