<?xml version="1.0" encoding="UTF-8"?>
<svg id="Layer_1" data-name="Layer 1" xmlns="http://www.w3.org/2000/svg" viewBox="0 0 1273.43 700.15">
  <defs>
    <style>
      .cls-1 {
        fill: #288140;
      }

      .cls-2 {
        fill: #12713a;
      }

      .cls-3 {
        fill: #89c240;
      }

      .cls-4 {
        fill: #84bf41;
      }

      .cls-5 {
        fill: #056b37;
      }

      .cls-6 {
        fill: #368c43;
      }

      .cls-7 {
        fill: #53a045;
      }

      .cls-8 {
        fill: #15733b;
      }

      .cls-9 {
        fill: #338a42;
      }

      .cls-10 {
        fill: #0c6d38;
      }

      .cls-11 {
        fill: #69ad44;
      }

      .cls-12 {
        fill: #016937;
      }

      .cls-13 {
        fill: #398f43;
      }

      .cls-14 {
        fill: #2d8641;
      }

      .cls-15 {
        fill: #18793d;
      }

      .cls-16 {
        fill: #8bc540;
      }

      .cls-17 {
        fill: #0f6f39;
      }

      .cls-18 {
        fill: #1a7b3e;
      }

      .cls-19 {
        fill: #7ebc42;
      }

      .cls-20 {
        fill: #58a345;
      }

      .cls-21 {
        fill: #2a8341;
      }

      .cls-22 {
        fill: #64ac45;
      }

      .cls-23 {
        fill: #3bb44a;
      }

      .cls-24 {
        fill: #3d9043;
      }

      .cls-25 {
        fill: #479745;
      }

      .cls-26 {
        fill: #5fa745;
      }

      .cls-27 {
        fill: #5ca545;
      }

      .cls-28 {
        fill: #519f45;
      }

      .cls-29 {
        fill: #449544;
      }

      .cls-30 {
        fill: #62a945;
      }

      .cls-31 {
        fill: #81be41;
      }

      .cls-32 {
        fill: #308742;
      }

      .cls-33 {
        fill: #16763c;
      }

      .cls-34 {
        fill: #4b9a45;
      }

      .cls-35 {
        fill: #409444;
      }

      .cls-36 {
        fill: #217e3f;
      }

      .cls-37 {
        fill: #4f9d45;
      }

      .cls-38 {
        fill: #237f3f;
      }
    </style>
  </defs>
  <g>
    <path class="cls-16" d="M403.78,26.88l-13.24,77.53c-.76.07-1.52.14-2.28.22l11.57-78.38c.45-2.61,4.33-2.03,3.95.63Z"/>
    <path class="cls-3" d="M453.29,39.03l-21.85,65.03c-1.02-.08-2.04-.14-3.06-.21l20.27-66.31c1.02-3.07,5.6-1.64,4.64,1.49Z"/>
    <path class="cls-4" d="M499.6,58.25l-27.03,52.33c-1.27-.32-2.54-.62-3.82-.91l25.69-53.97c1.74-3.42,6.84-.94,5.16,2.55Z"/>
    <path class="cls-31" d="M542.01,83.88l-29.25,40.39c-1.48-.66-2.97-1.29-4.46-1.91l28.26-42.27c2.56-3.62,7.97.1,5.45,3.79Z"/>
    <path class="cls-19" d="M579.93,115.29l-29.24,29.83c-1.61-1.08-3.23-2.14-4.87-3.18l28.63-31.8c3.5-3.64,8.91,1.39,5.48,5.15Z"/>
    <path class="cls-11" d="M680.52,390.33l-22.61-2.74c.55-3.67,1.02-7.36,1.4-11.08l22.29,1.08c8.72.78,7.69,13.43-1.08,12.74Z"/>
    <path class="cls-22" d="M671.31,440.78l-24.89-7.05c1.3-3.68,2.52-7.39,3.65-11.15l24.46,4.93c9.11,2.24,5.95,15.44-3.22,13.27Z"/>
    <path class="cls-30" d="M654.82,488.32l-27.86-12.75c2.05-3.5,4.01-7.05,5.88-10.65l27.48,9.94c9.27,3.83,3.83,17.22-5.5,13.46Z"/>
    <path class="cls-26" d="M642.73,529.41c-2.11,3.98-7.28,5.29-11.02,2.81l-30.77-20.15c2.71-3.14,5.33-6.35,7.86-9.63l30.78,16.53c3.75,2.01,5.16,6.69,3.15,10.44Z"/>
    <path class="cls-27" d="M614.61,570.63c-2.82,3.85-8.45,4.42-11.99,1.24l-32.89-29.33c3.25-2.64,6.42-5.38,9.52-8.19l33.64,24.87c3.63,2.68,4.39,7.78,1.72,11.41Z"/>
    <path class="cls-20" d="M580.89,607.24c-3.52,3.6-9.51,3.35-12.72-.54l-33.48-40.18c3.63-2.05,7.21-4.19,10.72-6.42l35.41,34.98c3.37,3.34,3.41,8.78.07,12.16Z"/>
    <path class="cls-7" d="M542.12,638.68c-4.22,3.23-10.44,2.04-13.18-2.51l-31.88-52.38c3.85-1.39,7.67-2.87,11.43-4.45l35.38,46.68c3.01,3.98,2.23,9.64-1.75,12.66Z"/>
    <path class="cls-28" d="M498.82,664.34c-4.88,2.73-11.18.53-13.31-4.63l-27.43-65.4c3.91-.71,7.78-1.52,11.62-2.42l32.85,59.58c2.52,4.58.86,10.35-3.73,12.87Z"/>
    <path class="cls-37" d="M451.57,683.59c-5.49,2.09-11.69-1.19-13.09-6.89l-19.6-78.38c3.79-.08,7.56-.25,11.31-.51l27.21,73.02c1.91,5.14-.7,10.85-5.83,12.76Z"/>
    <path class="cls-34" d="M401.03,695.74c-6.01,1.3-11.93-3.08-12.45-9.21l-8.19-90.29c3.5.47,7.02.86,10.57,1.17l18.08,86.06c1.17,5.6-2.41,11.09-8.01,12.27Z"/>
    <path class="cls-25" d="M348.02,700.13c-6.42.4-11.84-5.09-11.38-11.49l6.6-100.26c3.14.93,6.31,1.79,9.51,2.59l5.45,97.77c.33,5.96-4.23,11.06-10.18,11.39Z"/>
    <path class="cls-29" d="M317.49,579.23l-10.27,107.04c-.59,6.18-6.08,10.71-12.26,10.11-6.69-.59-11.41-7.13-9.89-13.66l24.18-107.12c2.72,1.26,5.47,2.48,8.24,3.63Z"/>
    <path class="cls-35" d="M286.49,563.59l-28.2,112.76c-1.57,6.26-7.91,10.07-14.17,8.5-6.8-1.64-10.64-9.14-8.03-15.63l43.45-109.94c2.29,1.48,4.61,2.91,6.95,4.31Z"/>
    <path class="cls-24" d="M259.53,544.97l-47.36,114.58c-2.56,6.19-9.65,9.13-15.84,6.57-6.76-2.73-9.55-11.05-5.84-17.31l63.32-108.51c1.88,1.59,3.79,3.15,5.72,4.67Z"/>
    <path class="cls-13" d="M236.33,524.1l-66.82,112.35c-3.55,5.96-11.26,7.92-17.23,4.37-5.96-3.55-7.92-11.26-4.37-17.22.25-.44.57-.89.88-1.29,0,0,0,0,.01,0l.02-.03s.07-.09.1-.13l82.8-102.87c1.52,1.63,3.05,3.24,4.61,4.83Z"/>
    <path class="cls-6" d="M216.67,501.45l-85.78,106.16c-4.51,5.59-12.71,6.45-18.29,1.94-6.16-4.89-6.46-14.4-.65-19.68l101.09-93.26c1.19,1.63,2.4,3.24,3.63,4.84Z"/>
    <path class="cls-9" d="M200.37,477.43l-103.52,96.13c-5.44,5.06-13.95,4.74-19.01-.7-5.6-5.93-4.47-15.75,2.29-20.28l117.47-79.92c.9,1.6,1.83,3.19,2.77,4.77Z"/>
    <path class="cls-32" d="M187.3,452.34l-119.36,82.48c-6.31,4.36-14.97,2.78-19.33-3.54-4.36-6.31-2.78-14.96,3.53-19.33.5-.34,1.07-.67,1.6-.95,0,0,0,0,.05-.03,0,0,.01,0,.02-.01l.07-.04.13-.06,131.25-63.19c.66,1.57,1.34,3.12,2.04,4.67Z"/>
    <path class="cls-14" d="M177.34,426.36l-132.6,65.51c-7.1,3.51-15.7.6-19.21-6.5-3.94-7.8.28-17.56,8.65-20.06l141.74-43.53c.46,1.53.93,3.06,1.42,4.58Z"/>
    <path class="cls-21" d="M170.41,399.56l-142.52,45.74c-7.78,2.49-16.1-1.79-18.59-9.56-2.85-8.59,3-17.92,11.94-19.15l148.3-21.61c.27,1.53.56,3.06.87,4.58Z"/>
    <path class="cls-1" d="M166.49,371.8l-148.45,23.94c-8.3,1.34-16.12-4.31-17.46-12.61-1.58-9.2,5.88-17.82,15.2-17.65l150.36,1.63c.1,1.57.22,3.13.35,4.69Z"/>
    <path class="cls-38" d="M165.94,338.2c-.08,1.64-.15,3.29-.2,4.93l-149.94,1.24c-8.66.08-15.73-6.88-15.8-15.54-.18-9.64,8.8-17.26,18.28-15.58l147.66,24.95Z"/>
    <path class="cls-36" d="M169,309.9c-.3,1.77-.57,3.54-.83,5.32l-146.93-21.05c-8.81-1.26-14.93-9.42-13.67-18.23,1.31-9.86,11.68-16.23,21.07-13l140.36,46.96Z"/>
    <path class="cls-18" d="M175.27,282.25c-.57,1.94-1.1,3.88-1.61,5.84l-139.76-41.79c-8.77-2.62-13.75-11.85-11.13-20.61,2.84-9.85,14.41-14.74,23.46-9.97l129.04,66.53Z"/>
    <path class="cls-15" d="M184.81,255.17c-.9,2.14-1.77,4.29-2.6,6.46l-129.01-60.16c-8.51-3.96-12.19-14.08-8.22-22.59,4.36-9.62,16.91-12.84,25.38-6.59l114.45,82.88Z"/>
    <path class="cls-33" d="M197.81,228.75c-1.34,2.35-2.64,4.73-3.9,7.13l-115.31-75.56c-8.06-5.28-10.32-16.1-5.03-24.16,5.85-9.15,19.13-10.56,26.8-2.9l97.44,95.49Z"/>
    <path class="cls-8" d="M214.43,203.29c-1.89,2.54-3.74,5.12-5.53,7.74l-99.37-87.64c-7.41-6.53-8.12-17.84-1.59-25.25,7.3-8.47,21.05-7.92,27.69,1.04l78.8,104.11Z"/>
    <path class="cls-2" d="M234.87,179.18c-2.58,2.68-5.11,5.42-7.57,8.22l-81.81-96.16c-6.56-7.71-5.63-19.29,2.08-25.85,8.66-7.55,22.59-4.93,27.98,5.18l59.32,108.61Z"/>
    <path class="cls-17" d="M259.35,156.95c-3.42,2.71-6.77,5.51-10.04,8.41l-63.32-100.93c-5.52-8.79-2.86-20.38,5.93-25.9,9.92-6.39,23.7-1.63,27.63,9.47l39.8,108.95Z"/>
    <path class="cls-10" d="M288.12,137.23c-4.41,2.59-8.74,5.31-12.97,8.15l-44.64-101.8c-4.27-9.73.16-21.07,9.89-25.34,11.03-5,24.32,1.95,26.58,13.82l21.14,105.17Z"/>
    <path class="cls-5" d="M321.4,120.95c-5.53,2.2-10.96,4.6-16.28,7.19l-26.66-98.79c-2.84-10.5,3.37-21.3,13.87-24.13,10.49-2.83,21.29,3.38,24.13,13.87.36,1.34.57,2.77.65,4.1v.16s4.29,97.6,4.29,97.6Z"/>
    <path class="cls-12" d="M369.12,22.41l-9.8,86.85c-6.71,1.48-13.32,3.24-19.81,5.26l-10.39-92.11c-1.25-11.05,6.7-21.01,17.74-22.26,12.66-1.59,23.82,9.64,22.26,22.26Z"/>
  </g>
  <g>
    <path class="cls-23" d="M337.34,283.49c0,5.98-.88,10.31-2.65,13-1.76,2.68-4.79,4.03-9.08,4.03-4.6,0-7.74-1.38-9.43-4.14-1.69-2.76-2.53-7.67-2.53-14.72v-92.92h-50.14v86.48c0,19.63,5.06,34.73,15.18,45.31s25.76,15.87,46.92,15.87,35.57-5.21,46-15.64c10.43-10.42,15.64-25.68,15.64-45.77v-86.25h-49.91v94.76Z"/>
    <path class="cls-23" d="M492.13,271.89c-.81-2.39-1.58-4.62-2.3-6.68-2.91-8.36-6.06-16.37-9.43-24.04l-22.77-52.44h-52.67v144.67h41.17v-85.1c.08.23.15.46.23.69,3.53,10.43,7.67,21.01,12.42,31.74l23.46,52.67h51.29v-144.67h-41.4v83.16Z"/>
    <polygon class="cls-23" points="551.01 216.79 563.2 216.79 563.2 305.8 551.24 305.8 551.01 333.4 625.3 333.4 625.3 305.8 613.57 305.8 613.57 216.79 625.3 216.79 625.3 188.73 551.24 188.73 551.01 216.79"/>
    <polygon class="cls-23" points="699.27 284.5 683.48 188.73 631.5 188.73 670.6 333.4 724.65 333.4 766.05 188.73 718.21 188.73 699.27 284.5"/>
    <polygon class="cls-23" points="823.32 298.21 823.32 277.74 863.57 277.74 863.57 243.24 823.32 243.24 823.32 223.92 869.32 223.92 871.16 188.73 774.56 188.73 774.56 333.4 871.39 333.4 870.7 298.21 823.32 298.21"/>
    <path class="cls-23" d="M986.74,279.47c-1.12-1.81-2.23-3.55-3.33-5.25,4.84-2.47,9.1-5.71,12.76-9.7,6.67-7.28,10-18.13,10-32.54,0-10.89-2.46-19.59-7.36-26.11-4.91-6.52-12.23-11.19-21.96-14.03-9.74-2.83-22.2-4.25-37.38-4.25-16.71,0-30.74.23-42.09.69-3.68.15-7.44.31-11.27.46v144.67h49.68v-51.33c1.58-.02,3.13-.06,4.66-.11l17.88,51.44h55.43l-18.17-38.41c-1.69-3.53-4.64-8.7-8.86-15.52ZM935.79,218.01c1.77-.04,3.46-.07,5.06-.07,3.68,0,6.44.61,8.28,1.84,1.84,1.23,3.07,3.11,3.68,5.63.61,2.53.92,6.17.92,10.93,0,5.21-.61,9.05-1.84,11.5-1.23,2.45-2.99,4.02-5.29,4.71-2.3.69-5.52,1.04-9.66,1.04-.38,0-.77,0-1.15,0v-35.57Z"/>
    <path class="cls-23" d="M1095.41,249.91c-7.36-3.37-12.84-6.06-16.45-8.05-3.6-1.99-6.06-3.76-7.36-5.29-1.3-1.53-1.96-3.22-1.96-5.06,0-3.07,1.23-5.29,3.68-6.67,2.45-1.38,5.83-2.07,10.12-2.07,4.75,0,9.89.5,15.41,1.5,5.52,1,10.81,2.42,15.87,4.25l5.29-35.19c-5.52-2.3-11.77-4.14-18.75-5.52-6.98-1.38-14.14-2.07-21.5-2.07-13.19,0-24.3,2.07-33.35,6.21-9.05,4.14-15.79,9.7-20.24,16.67-4.45,6.98-6.67,14.68-6.67,23.12,0,6.59,1.26,12.34,3.79,17.25,2.53,4.91,6.13,9.28,10.81,13.11,4.67,3.83,10.69,7.74,18.05,11.73,5.98,3.22,10.35,5.71,13.11,7.48,2.76,1.76,4.75,3.41,5.98,4.94,1.23,1.54,1.84,3.38,1.84,5.52,0,3.07-1.04,5.25-3.1,6.55-2.07,1.3-5.33,1.96-9.78,1.96-5.06,0-10.89-.69-17.48-2.07-6.59-1.38-13.72-3.37-21.39-5.98l-4.6,34.04c7.67,3.37,15.37,5.9,23.12,7.59,7.74,1.69,16.44,2.53,26.1,2.53,18.25,0,32.7-4.03,43.36-12.08,10.66-8.05,15.98-19.74,15.98-35.08,0-9.81-2.57-17.75-7.71-23.8-5.14-6.06-12.53-11.23-22.19-15.53Z"/>
    <path class="cls-23" d="M1256.06,204.95c-11.58-12.8-28.25-19.21-50.02-19.21-14.42,0-27.1,2.95-38.07,8.86-10.96,5.9-19.43,14.49-25.42,25.76-5.98,11.27-8.97,24.72-8.97,40.37,0,24.07,5.83,42.7,17.48,55.89,11.65,13.19,29.29,19.78,52.9,19.78,14.41,0,26.83-3.18,37.26-9.54,10.43-6.36,18.4-15.37,23.92-27.03,5.52-11.65,8.28-25.22,8.28-40.71,0-23.31-5.79-41.36-17.37-54.17ZM1217.77,286.94c-1.23,6.13-2.88,10.2-4.94,12.19-2.07,1.99-4.79,2.99-8.17,2.99-3.68,0-6.67-.96-8.97-2.88-2.3-1.92-4.1-5.9-5.4-11.96-1.3-6.06-1.96-14.99-1.96-26.79,0-14.57,1.42-24.34,4.25-29.33,2.83-4.98,6.71-7.47,11.62-7.47,5.52,0,9.47,2.61,11.84,7.82,2.38,5.21,3.56,14.64,3.56,28.29,0,11.96-.61,21.01-1.84,27.14Z"/>
  </g>
  <g>
    <path class="cls-12" d="M338.26,419.91c-7.36-3.37-12.84-6.06-16.45-8.05-3.6-1.99-6.06-3.76-7.36-5.29-1.3-1.53-1.96-3.22-1.96-5.06,0-3.07,1.23-5.29,3.68-6.67,2.45-1.38,5.83-2.07,10.12-2.07,4.75,0,9.89.5,15.41,1.5,5.52,1,10.81,2.42,15.87,4.25l5.29-35.19c-5.52-2.3-11.77-4.14-18.75-5.52-6.98-1.38-14.14-2.07-21.5-2.07-13.19,0-24.3,2.07-33.35,6.21-9.05,4.14-15.79,9.7-20.24,16.67-4.45,6.98-6.67,14.68-6.67,23.12,0,6.59,1.26,12.34,3.79,17.25,2.53,4.91,6.13,9.28,10.81,13.11,4.67,3.83,10.69,7.74,18.05,11.73,5.98,3.22,10.35,5.71,13.11,7.48,2.76,1.76,4.75,3.41,5.98,4.94,1.23,1.54,1.84,3.38,1.84,5.52,0,3.07-1.04,5.25-3.1,6.55-2.07,1.3-5.33,1.96-9.78,1.96-5.06,0-10.89-.69-17.48-2.07-6.59-1.38-13.72-3.37-21.39-5.98l-4.6,34.04c7.67,3.37,15.37,5.9,23.12,7.59,7.74,1.69,16.44,2.53,26.1,2.53,18.25,0,32.7-4.03,43.36-12.08,10.66-8.05,15.98-19.74,15.98-35.08,0-9.81-2.57-17.75-7.71-23.8-5.14-6.06-12.53-11.23-22.19-15.53Z"/>
    <path class="cls-12" d="M495.58,380.7c-3.53-7.13-10.12-12.8-19.78-17.02-9.66-4.22-23.31-6.33-40.94-6.33-11.35,0-24.38.31-39.1.92-2.61,0-6.82.15-12.65.46v144.67h49.68v-43.08c3.19.05,6.18.07,8.97.07,19.93,0,34.77-5.02,44.5-15.07,9.74-10.04,14.61-22.96,14.61-38.75,0-10.12-1.76-18.75-5.29-25.88ZM446.7,423.94c-.69,2.99-1.88,5.02-3.57,6.09-1.69,1.07-4.14,1.61-7.36,1.61-1,0-1.99-.02-2.99-.03v-43.87c1.1-.02,2.18-.03,3.22-.03,3.07,0,5.41.62,7.01,1.84,1.61,1.23,2.8,3.45,3.57,6.67.77,3.22,1.15,7.9,1.15,14.03s-.34,10.7-1.03,13.69Z"/>
  </g>
</svg>