<?xml version="1.0" encoding="UTF-8"?>
<svg id="Layer_1" data-name="Layer 1" xmlns="http://www.w3.org/2000/svg" viewBox="0 0 1696.61 700.15">
  <defs>
    <style>
      .cls-1 {
        fill: #03a8c5;
      }

      .cls-2 {
        fill: #283170;
      }

      .cls-3 {
        fill: #136094;
      }

      .cls-4 {
        fill: #223e7d;
      }

      .cls-5 {
        fill: #57c6d7;
      }

      .cls-6 {
        fill: #00b2cc;
      }

      .cls-7 {
        fill: #282561;
      }

      .cls-8 {
        fill: #273675;
      }

      .cls-9 {
        fill: #41c2d5;
      }

      .cls-10 {
        fill: #2a2969;
      }

      .cls-11 {
        fill: #0f70a0;
      }

      .cls-12 {
        fill: #124e8a;
      }

      .cls-13 {
        fill: #154985;
      }

      .cls-14 {
        fill: #0f8bb2;
      }

      .cls-15 {
        fill: #6acadb;
      }

      .cls-16 {
        fill: #0e92b7;
      }

      .cls-17 {
        fill: #0e7ba8;
      }

      .cls-18 {
        fill: #14538e;
      }

      .cls-19 {
        fill: #51c4d5;
      }

      .cls-20 {
        fill: #06a2c2;
      }

      .cls-21 {
        fill: #126498;
      }

      .cls-22 {
        fill: #1e4381;
      }

      .cls-23 {
        fill: #5fc7d8;
      }

      .cls-24 {
        fill: #1cbed3;
      }

      .cls-25 {
        fill: #116a9c;
      }

      .cls-26 {
        fill: #292561;
      }

      .cls-27 {
        fill: #1186ae;
      }

      .cls-28 {
        fill: #2a2d6c;
      }

      .cls-29 {
        fill: #0e81ac;
      }

      .cls-30 {
        fill: #67c9da;
      }

      .cls-31 {
        fill: #1176a4;
      }

      .cls-32 {
        fill: #0db9d1;
      }

      .cls-33 {
        fill: #4ac3d6;
      }

      .cls-34 {
        fill: #2bbfd3;
      }

      .cls-35 {
        fill: #0e98bb;
      }

      .cls-36 {
        fill: #292565;
      }

      .cls-37 {
        fill: #33c0d4;
      }

      .cls-38 {
        fill: #272361;
      }

      .cls-39 {
        fill: #62c8da;
      }

      .cls-40 {
        fill: #0a9dbe;
      }

      .cls-41 {
        fill: #1281aa;
      }

      .cls-42 {
        fill: #135990;
      }

      .cls-43 {
        fill: #253a79;
      }

      .cls-44 {
        fill: #08aec8;
      }

      .cls-45 {
        fill: #6fcbdc;
      }
    </style>
  </defs>
  <g>
    <path class="cls-7" d="M827.02,174.12c-7.95-3.47-19.18-5.2-33.69-5.2-9.34,0-20.06.25-32.17.76-2.15,0-5.62.13-10.41.38v119.04h40.88v-35.45c2.62.04,5.09.06,7.38.06,16.4,0,28.61-4.13,36.62-12.4,8.01-8.26,12.02-18.89,12.02-31.89,0-8.33-1.45-15.42-4.35-21.29-2.9-5.87-8.33-10.53-16.28-14ZM803.08,223.7c-.57,2.46-1.55,4.13-2.93,5.01-1.39.88-3.41,1.33-6.06,1.33-.82,0-1.64-.02-2.46-.02v-36.1c.91-.01,1.8-.02,2.65-.02,2.52,0,4.45.5,5.77,1.51,1.32,1.01,2.3,2.84,2.93,5.49.63,2.65.95,6.5.95,11.54s-.28,8.8-.85,11.26Z"/>
    <path class="cls-7" d="M941.98,244.71c-.92-1.49-1.84-2.94-2.75-4.34,3.98-2.04,7.5-4.67,10.51-7.97,5.49-5.99,8.23-14.92,8.23-26.78,0-8.96-2.02-16.12-6.06-21.48-4.04-5.36-10.06-9.21-18.07-11.54-8.01-2.33-18.26-3.5-30.75-3.5-13.75,0-25.3.19-34.63.57-3.03.13-6.12.25-9.27.38v119.04h40.88v-42.24c1.3-.02,2.57-.05,3.83-.09l14.72,42.33h45.61l-14.95-31.6c-1.39-2.9-3.82-7.16-7.29-12.77ZM900.07,194.14c1.46-.04,2.85-.06,4.16-.06,3.03,0,5.3.51,6.81,1.51,1.51,1.01,2.52,2.55,3.03,4.64.5,2.08.76,5.08.76,8.99,0,4.29-.51,7.45-1.51,9.46-1.01,2.02-2.46,3.31-4.35,3.88s-4.54.85-7.95.85c-.31,0-.63,0-.95,0v-29.27Z"/>
    <path class="cls-7" d="M1025.54,167.59c-11.86,0-22.3,2.43-31.32,7.29-9.02,4.86-15.99,11.92-20.91,21.2-4.92,9.27-7.38,20.34-7.38,33.21,0,19.81,4.79,35.14,14.38,45.99,9.59,10.85,24.1,16.28,43.53,16.28,11.86,0,22.08-2.62,30.66-7.85,8.58-5.23,15.14-12.65,19.68-22.24,4.54-9.59,6.81-20.75,6.81-33.5,0-19.18-4.76-34.03-14.29-44.57-9.53-10.53-23.25-15.8-41.16-15.8ZM1035.19,250.86c-1.01,5.05-2.37,8.39-4.07,10.03-1.7,1.64-3.94,2.46-6.72,2.46-3.03,0-5.49-.79-7.38-2.37-1.89-1.58-3.38-4.86-4.45-9.84-1.07-4.98-1.61-12.33-1.61-22.05,0-11.99,1.17-20.03,3.5-24.13,2.33-4.1,5.52-6.15,9.56-6.15,4.54,0,7.79,2.15,9.75,6.43,1.96,4.29,2.93,12.05,2.93,23.28,0,9.84-.51,17.29-1.51,22.33Z"/>
    <path class="cls-7" d="M1145.71,246.88l11.35-.46v16.38c-1.78.1-3.49.17-5.11.17-5.55,0-9.75-.85-12.58-2.55-2.84-1.7-4.89-4.86-6.15-9.46-1.26-4.6-1.89-11.51-1.89-20.72,0-8.2,1.1-14.6,3.31-19.21,2.21-4.6,5.49-7.82,9.84-9.65,4.35-1.83,10.06-2.74,17.13-2.74,3.41,0,6.94.19,10.6.57,3.66.38,7.25.82,10.79,1.32.76.13,1.45.25,2.08.38l3.22-28.2c-5.68-1.64-11.04-2.9-16.09-3.79-5.05-.88-10.79-1.32-17.22-1.32-12.75,0-24.19,2.52-34.35,7.57-10.16,5.05-18.17,12.46-24.04,22.24-5.87,9.78-8.8,21.54-8.8,35.29,0,20.69,5.49,35.67,16.46,44.95,10.98,9.27,27.57,13.91,49.77,13.91,8.45,0,19.74-.76,33.88-2.27l4.92-.57v-67.75h-47.12v25.93Z"/>
    <path class="cls-7" d="M1290.96,244.71c-.92-1.49-1.84-2.94-2.75-4.34,3.98-2.04,7.5-4.67,10.51-7.97,5.49-5.99,8.23-14.92,8.23-26.78,0-8.96-2.02-16.12-6.06-21.48-4.04-5.36-10.06-9.21-18.07-11.54-8.01-2.33-18.26-3.5-30.75-3.5-13.75,0-25.3.19-34.63.57-3.03.13-6.12.25-9.27.38v119.04h40.88v-42.24c1.3-.02,2.57-.05,3.83-.09l14.72,42.33h45.61l-14.95-31.6c-1.39-2.9-3.82-7.16-7.29-12.77ZM1249.04,194.14c1.46-.04,2.85-.06,4.16-.06,3.03,0,5.3.51,6.81,1.51,1.51,1.01,2.52,2.55,3.03,4.64.5,2.08.76,5.08.76,8.99,0,4.29-.51,7.45-1.51,9.46-1.01,2.02-2.46,3.31-4.35,3.88s-4.54.85-7.95.85c-.31,0-.63,0-.95,0v-29.27Z"/>
    <path class="cls-7" d="M1348.58,170.05l-35.2,119.04h44.09l3.05-18.36h24.03l3.39,18.36h42.96l-34.25-119.04h-48.07ZM1365.35,241.78l6.58-39.54,7.29,39.54h-13.87Z"/>
    <path class="cls-7" d="M1525.15,170.05l-14,53.56c-1.25,4.61-2.5,9.45-3.73,14.5-1.15-5.61-2.37-10.77-3.65-15.44l-13.63-52.61h-50.15l-5.49,119.04h37.47l-1.09-75.56,18.7,64.58h31.23l18.31-65.1-.14,76.08h36.52l-3.22-119.04h-47.12Z"/>
    <path class="cls-7" d="M1653.65,289.09h42.96l-34.25-119.04h-48.07l-35.2,119.04h44.09l3.05-18.36h24.03l3.39,18.36ZM1631.05,241.78l6.58-39.54,7.29,39.54h-13.87Z"/>
  </g>
  <g>
    <path class="cls-41" d="M832.6,329.42c-8.77-3.79-20.03-5.68-33.78-5.68s-27.76.32-42.01.95l-6.06.38v119.04c18.17.76,33.69,1.14,46.56,1.14,14.26,0,25.96-2.33,35.11-7,9.15-4.67,15.9-11.61,20.25-20.82,4.35-9.21,6.53-20.69,6.53-34.44,0-14.63-2.24-26.27-6.72-34.92-4.48-8.64-11.1-14.86-19.87-18.64ZM813.48,406.07c-1.07,4.8-2.87,8.14-5.39,10.03-2.53,1.89-6.25,2.84-11.17,2.84-1.55,0-3.2-.03-4.92-.08v-68.11c1.83-.08,3.66-.13,5.49-.13,4.92,0,8.61.92,11.07,2.74,2.46,1.83,4.16,5.14,5.11,9.94.95,4.8,1.42,11.99,1.42,21.57s-.54,16.4-1.61,21.2Z"/>
    <polygon class="cls-41" points="911.42 415.15 911.42 398.31 944.54 398.31 944.54 369.92 911.42 369.92 911.42 354.02 949.27 354.02 950.78 325.07 871.3 325.07 871.3 444.11 950.97 444.11 950.4 415.15 911.42 415.15"/>
    <path class="cls-41" d="M1082.12,325.07l-14,53.56c-1.25,4.61-2.5,9.45-3.73,14.5-1.15-5.61-2.37-10.77-3.65-15.44l-13.63-52.61h-50.15l-5.49,119.04h37.47l-1.09-75.56,18.7,64.58h31.23l18.31-65.1-.14,76.08h36.52l-3.22-119.04h-47.12Z"/>
    <polygon class="cls-41" points="1184.88 415.15 1184.88 398.31 1218 398.31 1218 369.92 1184.88 369.92 1184.88 354.02 1222.73 354.02 1224.24 325.07 1144.76 325.07 1144.76 444.11 1224.43 444.11 1223.86 415.15 1184.88 415.15"/>
    <polygon class="cls-41" points="1321.14 354.21 1322.27 325.07 1229.16 325.07 1230.48 354.21 1254.9 354.21 1254.9 444.11 1296.34 444.11 1296.34 354.21 1321.14 354.21"/>
    <path class="cls-41" d="M1348.77,325.07l-35.2,119.04h44.09l3.05-18.36h24.03l3.39,18.36h42.96l-34.25-119.04h-48.07ZM1365.53,396.79l6.58-39.54,7.29,39.54h-13.87Z"/>
    <path class="cls-41" d="M1516.72,388.18c-4.23-4.98-10.31-9.24-18.26-12.77-6.06-2.77-10.57-4.98-13.53-6.62-2.97-1.64-4.99-3.09-6.06-4.35-1.07-1.26-1.61-2.65-1.61-4.16,0-2.52,1.01-4.35,3.03-5.49,2.02-1.14,4.79-1.7,8.33-1.7,3.91,0,8.14.41,12.68,1.23,4.54.82,8.89,1.99,13.06,3.5l4.35-28.96c-4.54-1.89-9.68-3.41-15.42-4.54-5.74-1.14-11.64-1.7-17.7-1.7-10.85,0-20,1.7-27.44,5.11-7.45,3.41-13,7.98-16.65,13.72-3.66,5.74-5.49,12.08-5.49,19.02,0,5.43,1.04,10.16,3.12,14.19,2.08,4.04,5.04,7.64,8.89,10.79,3.85,3.16,8.8,6.37,14.86,9.65,4.92,2.65,8.52,4.7,10.79,6.15,2.27,1.45,3.91,2.81,4.92,4.07,1.01,1.26,1.51,2.78,1.51,4.54,0,2.53-.85,4.32-2.55,5.39-1.7,1.07-4.38,1.61-8.04,1.61-4.16,0-8.96-.57-14.38-1.7-5.43-1.14-11.29-2.77-17.6-4.92l-3.79,28.01c6.31,2.78,12.65,4.86,19.02,6.25,6.37,1.39,13.53,2.08,21.48,2.08,15.01,0,26.9-3.31,35.67-9.94,8.77-6.62,13.15-16.24,13.15-28.86,0-8.07-2.11-14.6-6.34-19.59Z"/>
  </g>
  <g>
    <path class="cls-33" d="M819.71,490.14c-5.9-5.46-14.53-8.2-25.9-8.2-6.17,0-11.99.68-17.46,2.03-5.47,1.36-10.37,3.22-14.7,5.6l1.14,19.49c4.33-1.73,8.5-3.06,12.5-3.98,4-.92,7.85-1.38,11.53-1.38,5.2,0,8.79,1.03,10.8,3.08,2,2.06,2.73,4.98,2.19,8.77-.43,3.25-2.25,7.04-5.44,11.37-3.19,4.33-7.17,8.91-11.94,13.72-4.77,4.82-11.37,11.23-19.81,19.24-3.03,2.92-6.12,5.9-9.26,8.93l-1.46,17.21h66.42l2.76-21.76h-16.08c-6.29,0-12.41.17-18.38.49,8.2-7.43,14.8-13.66,19.76-18.67,5.25-5.3,9.77-10.72,13.56-16.24,3.79-5.52,6.01-10.88,6.66-16.08,1.3-10.28-1-18.16-6.9-23.63Z"/>
    <path class="cls-33" d="M880.52,481.94c-12.13,0-22.03,4.01-29.72,12.02-7.69,8.01-12.61,20.95-14.78,38.81-2.17,17.86-.22,31.5,5.85,40.92,6.06,9.42,15.91,14.13,29.56,14.13,12.77,0,22.74-4.28,29.88-12.83,7.15-8.55,11.75-21.6,13.8-39.14,2.06-17.97.05-31.45-6.01-40.44-6.06-8.99-15.59-13.48-28.58-13.48ZM886.86,536.83c-1.08,8.77-2.3,15.4-3.65,19.89-1.36,4.49-2.87,7.53-4.55,9.09-1.68,1.57-3.71,2.35-6.09,2.35-2.92,0-5.14-.92-6.66-2.76-1.52-1.84-2.44-5.28-2.76-10.31s.11-12.31,1.3-21.84c.97-8.45,2.14-14.94,3.49-19.49,1.35-4.55,2.92-7.66,4.71-9.34,1.79-1.68,4.03-2.52,6.74-2.52,2.92,0,5.09,1,6.5,3,1.41,2,2.19,5.52,2.35,10.56s-.3,12.15-1.38,21.35Z"/>
    <path class="cls-33" d="M986.97,490.14c-5.9-5.46-14.53-8.2-25.9-8.2-6.17,0-11.99.68-17.46,2.03-5.47,1.36-10.37,3.22-14.7,5.6l1.14,19.49c4.33-1.73,8.5-3.06,12.5-3.98,4-.92,7.85-1.38,11.53-1.38,5.2,0,8.79,1.03,10.8,3.08,2,2.06,2.73,4.98,2.19,8.77-.43,3.25-2.25,7.04-5.44,11.37-3.19,4.33-7.17,8.91-11.94,13.72-4.77,4.82-11.37,11.23-19.81,19.24-3.03,2.92-6.12,5.9-9.26,8.93l-1.46,17.21h66.42l2.76-21.76h-16.08c-6.29,0-12.41.17-18.38.49,8.2-7.43,14.8-13.66,19.76-18.67,5.25-5.3,9.77-10.72,13.56-16.24,3.79-5.52,6.01-10.88,6.66-16.08,1.3-10.28-1-18.16-6.9-23.63Z"/>
    <path class="cls-33" d="M1005.24,529.36l2.76,13.15c3.35-.76,6.33-1.32,8.93-1.71,2.6-.38,5.3-.57,8.12-.57,4.76,0,8.25,1.03,10.47,3.09,2.22,2.06,3.11,5.2,2.68,9.42-.43,3.79-1.54,6.8-3.33,9.01-1.79,2.22-4.55,3.9-8.28,5.03-3.73,1.14-8.91,1.87-15.51,2.19-3.03.11-6.5,0-10.39-.32l-1.62,18.35c3.25.32,7.31.49,12.18.49,15.7,0,28.5-2.87,38.41-8.61,9.91-5.74,15.67-15.16,17.29-28.26,1.08-9.31-.71-16.26-5.36-20.87-4.66-4.6-12.02-6.9-22.09-6.9-2.99,0-6.05.2-9.17.56,1.13-3.5,2.35-7.42,3.65-11.77l2.04-6.5h34.98l4.22-21.27h-56.51l-13.48,45.47Z"/>
    <polygon class="cls-33" points="1095.04 602.6 1118.75 608.12 1169.25 471.39 1145.54 467.17 1095.04 602.6"/>
    <path class="cls-33" d="M1258.16,490.14c-5.9-5.46-14.53-8.2-25.9-8.2-6.17,0-11.99.68-17.46,2.03-5.47,1.36-10.37,3.22-14.7,5.6l1.14,19.49c4.33-1.73,8.5-3.06,12.5-3.98,4-.92,7.85-1.38,11.53-1.38,5.2,0,8.79,1.03,10.8,3.08,2,2.06,2.73,4.98,2.19,8.77-.43,3.25-2.25,7.04-5.44,11.37-3.19,4.33-7.17,8.91-11.94,13.72-4.77,4.82-11.37,11.23-19.81,19.24-3.03,2.92-6.12,5.9-9.26,8.93l-1.46,17.21h66.42l2.76-21.76h-16.08c-6.29,0-12.41.17-18.38.49,8.2-7.43,14.8-13.66,19.76-18.67,5.25-5.3,9.77-10.72,13.56-16.24,3.79-5.52,6.01-10.88,6.66-16.08,1.3-10.28-1-18.16-6.9-23.63Z"/>
    <path class="cls-33" d="M1318.97,481.94c-12.13,0-22.03,4.01-29.72,12.02-7.69,8.01-12.61,20.95-14.78,38.81-2.17,17.86-.22,31.5,5.85,40.92,6.06,9.42,15.91,14.13,29.56,14.13,12.77,0,22.74-4.28,29.88-12.83,7.15-8.55,11.75-21.6,13.8-39.14,2.06-17.97.05-31.45-6.01-40.44-6.06-8.99-15.59-13.48-28.58-13.48ZM1325.31,536.83c-1.08,8.77-2.3,15.4-3.65,19.89-1.36,4.49-2.87,7.53-4.55,9.09-1.68,1.57-3.71,2.35-6.09,2.35-2.92,0-5.14-.92-6.66-2.76-1.52-1.84-2.44-5.28-2.76-10.31s.11-12.31,1.3-21.84c.97-8.45,2.14-14.94,3.49-19.49,1.35-4.55,2.92-7.66,4.71-9.34,1.79-1.68,4.03-2.52,6.74-2.52,2.92,0,5.09,1,6.5,3,1.41,2,2.19,5.52,2.35,10.56s-.3,12.15-1.38,21.35Z"/>
    <path class="cls-33" d="M1425.43,490.14c-5.9-5.46-14.53-8.2-25.9-8.2-6.17,0-11.99.68-17.46,2.03-5.47,1.36-10.37,3.22-14.7,5.6l1.14,19.49c4.33-1.73,8.5-3.06,12.5-3.98,4-.92,7.85-1.38,11.53-1.38,5.2,0,8.79,1.03,10.8,3.08,2,2.06,2.73,4.98,2.19,8.77-.43,3.25-2.25,7.04-5.44,11.37-3.19,4.33-7.17,8.91-11.94,13.72-4.77,4.82-11.37,11.23-19.81,19.24-3.03,2.92-6.12,5.9-9.26,8.93l-1.46,17.21h66.42l2.76-21.76h-16.08c-6.29,0-12.41.17-18.38.49,8.2-7.43,14.8-13.66,19.76-18.67,5.25-5.3,9.77-10.72,13.56-16.24,3.79-5.52,6.01-10.88,6.66-16.08,1.3-10.28-1-18.16-6.9-23.63Z"/>
    <path class="cls-33" d="M1517.58,510.53c.54-5.74-.49-10.77-3.08-15.1-2.6-4.33-6.52-7.66-11.77-9.99-5.25-2.33-11.34-3.49-18.27-3.49-10.07,0-18.27,2.3-24.6,6.9-6.33,4.6-9.93,10.8-10.8,18.59-.76,7.15.87,13.45,4.87,18.92,1.69,2.31,3.81,4.58,6.31,6.82-4.25,2.11-7.94,4.51-11.02,7.23-5.52,4.87-8.66,10.83-9.42,17.86-.65,5.85.35,11.02,3,15.51,2.65,4.49,6.74,7.96,12.26,10.39,5.52,2.44,12.02,3.65,19.49,3.65,7.9,0,14.7-1.06,20.38-3.17,5.68-2.11,10.17-5.25,13.48-9.42,3.3-4.17,5.28-9.23,5.93-15.18.54-4.76-.14-9.07-2.03-12.91-1.9-3.84-4.63-7.28-8.2-10.31-1.13-.96-2.37-1.93-3.69-2.9,3.78-2.14,7.1-4.65,9.94-7.57,4.17-4.28,6.58-9.55,7.23-15.83ZM1473.25,507.28c.22-2.71,1.27-4.76,3.17-6.17,1.89-1.41,4.25-2.11,7.06-2.11,3.46,0,6.06,1.03,7.79,3.09,1.73,2.06,2.38,4.76,1.95,8.12-.43,3.9-1.62,7.15-3.57,9.74-1.19,1.58-2.68,2.99-4.48,4.21-3.91-2.63-6.76-5.04-8.51-7.21-2.49-3.08-3.63-6.3-3.41-9.66ZM1488.03,561.35c-.43,2.82-1.65,4.95-3.65,6.41-2,1.46-4.74,2.19-8.2,2.19-4.22,0-7.34-1.11-9.34-3.33-2-2.22-2.84-5.12-2.52-8.69.43-4,2.22-7.6,5.36-10.8,1.33-1.35,2.93-2.66,4.76-3.92,3.52,2.19,6.29,4.21,8.31,6.04,2.33,2.11,3.87,4.12,4.63,6.01.76,1.9.97,3.92.65,6.09Z"/>
  </g>
  <path class="cls-45" d="M403.78,26.88l-13.24,77.53c-.76.07-1.52.14-2.28.22l11.57-78.38c.45-2.61,4.33-2.03,3.95.63Z"/>
  <path class="cls-15" d="M453.29,39.03l-21.85,65.03c-1.02-.08-2.04-.14-3.06-.21l20.27-66.31c1.02-3.07,5.6-1.64,4.64,1.49Z"/>
  <path class="cls-30" d="M499.6,58.25l-27.03,52.33c-1.27-.32-2.54-.62-3.82-.91l25.69-53.97c1.74-3.42,6.84-.94,5.16,2.55Z"/>
  <path class="cls-39" d="M542.01,83.88l-29.25,40.39c-1.48-.66-2.97-1.29-4.46-1.91l28.26-42.27c2.56-3.62,7.97.1,5.45,3.79Z"/>
  <path class="cls-23" d="M579.93,115.29l-29.24,29.83c-1.61-1.08-3.23-2.14-4.87-3.18l28.63-31.8c3.47-3.65,8.93,1.42,5.48,5.15Z"/>
  <path class="cls-5" d="M612.79,151.87l-27.75,20.97c-1.63-1.57-3.28-3.12-4.95-4.64l27.49-22.9c4.46-3.48,9.64,2.98,5.21,6.57Z"/>
  <path class="cls-19" d="M640.04,193.06l-25.56,13.89c-1.51-2.11-3.05-4.19-4.62-6.25l25.54-15.66c5.45-3.1,10.07,4.82,4.64,8.02Z"/>
  <path class="cls-33" d="M661.05,238.27l-23.36,8.44c-1.23-2.65-2.5-5.27-3.83-7.86l23.47-10.02c6.44-2.47,10.14,6.84,3.72,9.44Z"/>
  <path class="cls-9" d="M675.2,286.85l-21.85,4.26c-.77-3.13-1.61-6.23-2.51-9.31l21.92-5.7c7.32-1.62,9.78,9.02,2.44,10.75Z"/>
  <path class="cls-37" d="M681.86,338.01l-21.53.78c-.17-3.49-.41-6.97-.72-10.43l21.42-2.22c8.11-.53,8.97,11.25.83,11.87Z"/>
  <path class="cls-34" d="M680.52,390.33l-22.61-2.74c.55-3.67,1.02-7.36,1.4-11.08l22.29,1.08c8.72.78,7.69,13.43-1.08,12.74Z"/>
  <path class="cls-24" d="M671.31,440.78l-24.89-7.05c1.3-3.68,2.52-7.39,3.65-11.15l24.46,4.93c9.11,2.24,5.95,15.44-3.22,13.27Z"/>
  <path class="cls-32" d="M654.82,488.32l-27.86-12.75c2.05-3.5,4.01-7.05,5.88-10.65l27.48,9.94c9.27,3.83,3.83,17.22-5.5,13.46Z"/>
  <path class="cls-6" d="M642.73,529.41c-2.11,3.98-7.28,5.29-11.02,2.81l-30.77-20.15c2.71-3.14,5.33-6.35,7.86-9.63l30.78,16.53c3.76,2.01,5.16,6.69,3.15,10.44Z"/>
  <path class="cls-44" d="M614.61,570.63c-2.82,3.85-8.45,4.42-11.99,1.24l-32.89-29.33c3.25-2.64,6.42-5.38,9.52-8.19l33.64,24.87c3.63,2.68,4.39,7.78,1.72,11.41Z"/>
  <path class="cls-1" d="M580.89,607.24c-3.52,3.6-9.51,3.35-12.72-.54l-33.48-40.18c3.63-2.05,7.21-4.19,10.72-6.42l35.41,34.98c3.37,3.34,3.41,8.78.07,12.16Z"/>
  <path class="cls-20" d="M542.12,638.68c-4.22,3.23-10.44,2.04-13.18-2.51l-31.88-52.38c3.85-1.39,7.67-2.87,11.43-4.45l35.38,46.68c3.01,3.98,2.23,9.64-1.75,12.66Z"/>
  <path class="cls-40" d="M498.82,664.34c-4.88,2.73-11.18.53-13.31-4.63l-27.43-65.4c3.91-.71,7.78-1.52,11.62-2.42l32.85,59.58c2.52,4.58.86,10.35-3.73,12.87Z"/>
  <path class="cls-35" d="M451.57,683.59c-5.49,2.09-11.69-1.19-13.09-6.89l-19.6-78.38c3.79-.08,7.56-.25,11.31-.51l27.21,73.02c1.91,5.14-.7,10.85-5.83,12.76Z"/>
  <path class="cls-16" d="M401.03,695.74c-6.01,1.3-11.93-3.08-12.45-9.21l-8.19-90.29c3.5.47,7.02.86,10.57,1.17l18.08,86.06c1.17,5.6-2.41,11.09-8.01,12.27Z"/>
  <path class="cls-14" d="M348.02,700.13c-6.42.4-11.84-5.09-11.38-11.49l6.6-100.26c3.14.93,6.31,1.79,9.51,2.59l5.45,97.77c.33,5.96-4.23,11.06-10.18,11.39Z"/>
  <path class="cls-27" d="M317.49,579.23l-10.27,107.04c-.59,6.18-6.08,10.71-12.26,10.11-6.69-.59-11.41-7.13-9.89-13.66l24.18-107.12c2.72,1.26,5.47,2.48,8.24,3.63Z"/>
  <path class="cls-29" d="M286.49,563.59l-28.2,112.76c-1.57,6.26-7.91,10.07-14.17,8.5-6.8-1.64-10.64-9.14-8.03-15.63l43.45-109.94c2.29,1.48,4.61,2.91,6.95,4.31Z"/>
  <path class="cls-17" d="M259.53,544.97l-47.36,114.58c-2.56,6.19-9.65,9.13-15.84,6.57-6.76-2.73-9.55-11.05-5.84-17.31l63.32-108.51c1.88,1.59,3.79,3.15,5.72,4.67Z"/>
  <path class="cls-31" d="M236.33,524.1l-66.82,112.35c-3.55,5.96-11.26,7.92-17.23,4.37-5.96-3.55-7.92-11.26-4.37-17.22.25-.44.57-.89.88-1.29,0,0,0,0,.01,0l.02-.03s.07-.09.1-.13l82.8-102.87c1.52,1.63,3.05,3.24,4.61,4.83Z"/>
  <path class="cls-11" d="M216.67,501.45l-85.78,106.16c-4.51,5.59-12.7,6.45-18.29,1.94-6.16-4.89-6.46-14.4-.65-19.68l101.09-93.26c1.19,1.63,2.4,3.24,3.63,4.84Z"/>
  <path class="cls-25" d="M200.37,477.43l-103.52,96.13c-5.44,5.06-13.95,4.74-19.01-.7-5.6-5.93-4.47-15.75,2.29-20.28l117.47-79.92c.9,1.6,1.83,3.19,2.77,4.77Z"/>
  <path class="cls-21" d="M187.3,452.34l-119.36,82.48c-6.31,4.36-14.97,2.78-19.33-3.54-4.36-6.31-2.78-14.96,3.53-19.33.5-.34,1.07-.67,1.6-.95,0,0,.01,0,.05-.03,0,0,.01,0,.02-.01l.07-.04.13-.06,131.25-63.19c.66,1.57,1.34,3.12,2.04,4.67Z"/>
  <path class="cls-3" d="M177.34,426.36l-132.6,65.51c-7.1,3.51-15.7.6-19.21-6.5-3.94-7.8.28-17.56,8.65-20.06l141.74-43.53c.46,1.53.93,3.06,1.42,4.58Z"/>
  <path class="cls-42" d="M170.41,399.56l-142.52,45.74c-7.78,2.49-16.1-1.79-18.59-9.56-2.85-8.59,3-17.92,11.94-19.15l148.3-21.61c.27,1.53.56,3.06.87,4.58Z"/>
  <path class="cls-18" d="M166.49,371.8l-148.45,23.94c-8.3,1.34-16.12-4.31-17.46-12.61-1.58-9.2,5.88-17.83,15.2-17.65l150.36,1.63c.1,1.57.22,3.13.35,4.69Z"/>
  <path class="cls-12" d="M165.94,338.2c-.08,1.64-.15,3.29-.2,4.93l-149.94,1.24c-8.66.08-15.73-6.88-15.8-15.54-.18-9.64,8.8-17.26,18.28-15.58l147.66,24.95Z"/>
  <path class="cls-13" d="M169,309.9c-.3,1.77-.57,3.54-.83,5.32l-146.93-21.05c-8.81-1.26-14.93-9.42-13.67-18.23,1.31-9.86,11.68-16.23,21.07-13l140.36,46.96Z"/>
  <path class="cls-22" d="M175.27,282.25c-.57,1.94-1.1,3.88-1.61,5.84l-139.76-41.79c-8.77-2.62-13.75-11.85-11.13-20.61,2.84-9.85,14.41-14.74,23.46-9.97l129.04,66.53Z"/>
  <path class="cls-4" d="M184.81,255.17c-.9,2.14-1.77,4.29-2.6,6.46l-129-60.16c-8.52-3.96-12.2-14.08-8.23-22.59,4.36-9.62,16.91-12.85,25.38-6.59l114.45,82.88Z"/>
  <path class="cls-43" d="M197.81,228.75c-1.34,2.35-2.64,4.73-3.9,7.13l-115.31-75.56c-8.06-5.28-10.32-16.1-5.03-24.16,5.85-9.15,19.13-10.56,26.8-2.9l97.44,95.49Z"/>
  <path class="cls-8" d="M214.43,203.29c-1.89,2.54-3.74,5.12-5.53,7.74l-99.37-87.63c-7.41-6.54-8.12-17.85-1.59-25.26,7.3-8.47,21.05-7.92,27.69,1.04l78.8,104.11Z"/>
  <path class="cls-2" d="M234.87,179.18c-2.58,2.68-5.11,5.42-7.57,8.22l-81.81-96.16c-6.56-7.71-5.63-19.29,2.08-25.85,8.66-7.55,22.59-4.93,27.98,5.18l59.32,108.61Z"/>
  <path class="cls-28" d="M259.35,156.95c-3.42,2.71-6.77,5.51-10.04,8.41l-63.32-100.93c-5.52-8.79-2.86-20.38,5.93-25.9,9.92-6.39,23.7-1.63,27.63,9.47l39.8,108.95Z"/>
  <path class="cls-10" d="M288.12,137.23c-4.41,2.59-8.74,5.31-12.97,8.15l-44.64-101.8c-4.27-9.73.16-21.07,9.89-25.34,11.03-5,24.32,1.95,26.58,13.82l21.14,105.17Z"/>
  <path class="cls-36" d="M321.4,120.95c-5.53,2.2-10.96,4.6-16.28,7.19l-26.66-98.79c-2.84-10.5,3.37-21.3,13.87-24.13,10.49-2.83,21.29,3.38,24.13,13.87.36,1.34.57,2.77.65,4.1v.16s4.29,97.6,4.29,97.6Z"/>
  <path class="cls-38" d="M369.12,22.41l-9.8,86.85c-6.71,1.48-13.32,3.24-19.81,5.26l-10.39-92.11c-1.25-11.05,6.7-21.01,17.74-22.26,12.66-1.59,23.82,9.64,22.26,22.26Z"/>
  <path class="cls-26" d="M421.84,320.53c0,7.87-.45,13.73-1.33,17.57-.89,3.83-2.41,6.44-4.58,7.82-2.16,1.38-5.31,2.06-9.44,2.06-1.28,0-2.56-.02-3.84-.03v-56.31c1.42-.03,2.8-.04,4.13-.04,3.94,0,6.94.79,9.01,2.36,2.06,1.58,3.58,4.43,4.57,8.56.98,4.14,1.48,10.14,1.48,18.01Z"/>
  <path class="cls-26" d="M630.4,362.96l-261.4,150.92c-12.8,7.39-28.8-1.85-28.8-16.63v-57.16h62.45v-55.3c4.09.06,7.93.1,11.51.1,25.58,0,44.63-6.45,57.13-19.34,12.49-12.89,18.74-29.47,18.74-49.74,0-12.99-2.26-24.06-6.79-33.21-4.53-9.16-12.99-16.43-25.39-21.85-12.4-5.41-29.91-8.12-52.54-8.12-14.57,0-31.3.4-50.19,1.18-3.15,0-8.12.18-14.92.52v-58.91c0-14.78,16-24.02,28.8-16.63l261.4,150.91c12.8,7.4,12.8,25.87,0,33.26Z"/>
  <path class="cls-38" d="M227.74,440.68c-9.94-2.16-19.83-5.41-29.67-9.74l5.9-43.69c9.84,3.35,18.99,5.9,27.45,7.67,8.46,1.77,15.94,2.66,22.44,2.66,5.71,0,9.89-.83,12.55-2.51,2.66-1.67,3.99-4.47,3.99-8.41,0-2.75-.79-5.12-2.36-7.08-1.58-1.96-4.13-4.08-7.67-6.35-3.54-2.26-9.15-5.46-16.83-9.59-9.45-5.12-17.17-10.13-23.17-15.05-6.01-4.92-10.63-10.53-13.87-16.83-3.25-6.3-4.87-13.68-4.87-22.14,0-10.82,2.85-20.71,8.56-29.67,5.71-8.95,14.36-16.09,25.98-21.4,11.61-5.31,25.88-7.97,42.8-7.97,9.45,0,18.64.89,27.6,2.66,8.95,1.77,16.97,4.13,24.06,7.08l-6.79,45.17c-6.5-2.36-13.29-4.18-20.37-5.46-7.08-1.28-13.68-1.92-19.78-1.92-5.51,0-9.84.88-12.99,2.66-3.15,1.77-4.72,4.63-4.72,8.56,0,2.36.83,4.53,2.51,6.5,1.67,1.97,4.82,4.23,9.45,6.79,4.62,2.56,11.66,6.01,21.11,10.33,12.4,5.51,21.89,12.15,28.49,19.93,6.59,7.78,9.89,17.96,9.89,30.55,0,19.68-6.84,34.69-20.52,45.02-13.68,10.33-32.23,15.5-55.65,15.5-12.4,0-23.57-1.08-33.51-3.25Z"/>
</svg>