<?xml version="1.0" encoding="UTF-8"?>
<svg id="Layer_1" data-name="Layer 1" xmlns="http://www.w3.org/2000/svg" viewBox="0 0 687.65 700.15">
  <path d="M403.78,26.88l-13.24,77.53c-.76.07-1.52.14-2.28.22l11.57-78.38c.45-2.61,4.33-2.03,3.95.63Z" style="fill: #231f20;"/>
  <path d="M453.29,39.03l-21.85,65.03c-1.02-.08-2.04-.14-3.06-.21l20.27-66.31c1.02-3.07,5.6-1.64,4.64,1.49Z" style="fill: #231f20;"/>
  <path d="M499.6,58.25l-27.03,52.33c-1.27-.32-2.54-.62-3.82-.91l25.69-53.97c1.74-3.42,6.84-.94,5.16,2.55Z" style="fill: #231f20;"/>
  <path d="M542.01,83.88l-29.25,40.39c-1.48-.66-2.97-1.29-4.46-1.91l28.26-42.27c2.56-3.62,7.97.1,5.45,3.79Z" style="fill: #231f20;"/>
  <path d="M579.93,115.29l-29.24,29.83c-1.61-1.08-3.23-2.14-4.87-3.18l28.63-31.8c3.47-3.65,8.93,1.42,5.48,5.15Z" style="fill: #231f20;"/>
  <path d="M612.79,151.87l-27.75,20.97c-1.63-1.57-3.28-3.12-4.95-4.64l27.49-22.9c4.46-3.48,9.64,2.98,5.21,6.57Z" style="fill: #231f20;"/>
  <path d="M640.04,193.06l-25.56,13.89c-1.51-2.11-3.05-4.19-4.62-6.25l25.54-15.66c5.45-3.1,10.07,4.82,4.64,8.02Z" style="fill: #231f20;"/>
  <path d="M661.05,238.27l-23.36,8.44c-1.23-2.65-2.5-5.27-3.83-7.86l23.47-10.02c6.44-2.47,10.14,6.84,3.72,9.44Z" style="fill: #231f20;"/>
  <path d="M675.2,286.85l-21.85,4.26c-.77-3.13-1.61-6.23-2.51-9.31l21.92-5.7c7.32-1.62,9.78,9.02,2.44,10.75Z" style="fill: #231f20;"/>
  <path d="M681.86,338.01l-21.53.78c-.17-3.49-.41-6.97-.72-10.43l21.42-2.22c8.11-.53,8.97,11.25.83,11.87Z" style="fill: #231f20;"/>
  <path d="M680.52,390.33l-22.61-2.74c.55-3.67,1.02-7.36,1.4-11.08l22.29,1.08c8.72.78,7.69,13.43-1.08,12.74Z" style="fill: #231f20;"/>
  <path d="M671.31,440.78l-24.89-7.05c1.3-3.68,2.52-7.39,3.65-11.15l24.46,4.93c9.11,2.24,5.95,15.44-3.22,13.27Z" style="fill: #231f20;"/>
  <path d="M654.82,488.32l-27.86-12.75c2.05-3.5,4.01-7.05,5.88-10.65l27.48,9.94c9.27,3.83,3.83,17.22-5.5,13.46Z" style="fill: #231f20;"/>
  <path d="M642.73,529.41c-2.11,3.98-7.28,5.29-11.02,2.81l-30.77-20.15c2.71-3.14,5.33-6.35,7.86-9.63l30.78,16.53c3.76,2.01,5.16,6.69,3.15,10.44Z" style="fill: #231f20;"/>
  <path d="M614.61,570.63c-2.82,3.85-8.45,4.42-11.99,1.24l-32.89-29.33c3.25-2.64,6.42-5.38,9.52-8.19l33.64,24.87c3.63,2.68,4.39,7.78,1.72,11.41Z" style="fill: #231f20;"/>
  <path d="M580.89,607.24c-3.52,3.6-9.51,3.35-12.72-.54l-33.48-40.18c3.63-2.05,7.21-4.19,10.72-6.42l35.41,34.98c3.37,3.34,3.41,8.78.07,12.16Z" style="fill: #231f20;"/>
  <path d="M542.12,638.68c-4.22,3.23-10.44,2.04-13.18-2.51l-31.88-52.38c3.85-1.39,7.67-2.87,11.43-4.45l35.38,46.68c3.01,3.98,2.23,9.64-1.75,12.66Z" style="fill: #231f20;"/>
  <path d="M498.82,664.34c-4.88,2.73-11.18.53-13.31-4.63l-27.43-65.4c3.91-.71,7.78-1.52,11.62-2.42l32.85,59.58c2.52,4.58.86,10.35-3.73,12.87Z" style="fill: #231f20;"/>
  <path d="M451.57,683.59c-5.49,2.09-11.69-1.19-13.09-6.89l-19.6-78.38c3.79-.08,7.56-.25,11.31-.51l27.21,73.02c1.91,5.14-.7,10.85-5.83,12.76Z" style="fill: #231f20;"/>
  <path d="M401.03,695.74c-6.01,1.3-11.93-3.08-12.45-9.21l-8.19-90.29c3.5.47,7.02.86,10.57,1.17l18.08,86.06c1.17,5.6-2.41,11.09-8.01,12.27Z" style="fill: #231f20;"/>
  <path d="M348.02,700.13c-6.42.4-11.84-5.09-11.38-11.49l6.6-100.26c3.14.93,6.31,1.79,9.51,2.59l5.45,97.77c.33,5.96-4.23,11.06-10.18,11.39Z" style="fill: #231f20;"/>
  <path d="M317.49,579.23l-10.27,107.04c-.59,6.18-6.08,10.71-12.26,10.11-6.69-.59-11.41-7.13-9.89-13.66l24.18-107.12c2.72,1.26,5.47,2.48,8.24,3.63Z" style="fill: #231f20;"/>
  <path d="M286.49,563.59l-28.2,112.76c-1.57,6.26-7.91,10.07-14.17,8.5-6.8-1.64-10.64-9.14-8.03-15.63l43.45-109.94c2.29,1.48,4.61,2.91,6.95,4.31Z" style="fill: #231f20;"/>
  <path d="M259.53,544.97l-47.36,114.58c-2.56,6.19-9.65,9.13-15.84,6.57-6.76-2.73-9.55-11.05-5.84-17.31l63.32-108.51c1.88,1.59,3.79,3.15,5.72,4.67Z" style="fill: #231f20;"/>
  <path d="M236.33,524.1l-66.82,112.35c-3.55,5.96-11.26,7.92-17.23,4.37-5.96-3.55-7.92-11.26-4.37-17.22.25-.44.57-.89.88-1.29,0,0,0,0,.01,0l.02-.03s.07-.09.1-.13l82.8-102.87c1.52,1.63,3.05,3.24,4.61,4.83Z" style="fill: #231f20;"/>
  <path d="M216.67,501.45l-85.78,106.16c-4.51,5.59-12.7,6.45-18.29,1.94-6.16-4.89-6.46-14.4-.65-19.68l101.09-93.26c1.19,1.63,2.4,3.24,3.63,4.84Z" style="fill: #231f20;"/>
  <path d="M200.37,477.43l-103.52,96.13c-5.44,5.06-13.95,4.74-19.01-.7-5.6-5.93-4.47-15.75,2.29-20.28l117.47-79.92c.9,1.6,1.83,3.19,2.77,4.77Z" style="fill: #231f20;"/>
  <path d="M187.3,452.34l-119.36,82.48c-6.31,4.36-14.97,2.78-19.33-3.54-4.36-6.31-2.78-14.96,3.53-19.33.5-.34,1.07-.67,1.6-.95,0,0,.01,0,.05-.03,0,0,.01,0,.02-.01l.07-.04.13-.06,131.25-63.19c.66,1.57,1.34,3.12,2.04,4.67Z" style="fill: #231f20;"/>
  <path d="M177.34,426.36l-132.6,65.51c-7.1,3.51-15.7.6-19.21-6.5-3.94-7.8.28-17.56,8.65-20.06l141.74-43.53c.46,1.53.93,3.06,1.42,4.58Z" style="fill: #231f20;"/>
  <path d="M170.41,399.56l-142.52,45.74c-7.78,2.49-16.1-1.79-18.59-9.56-2.85-8.59,3-17.92,11.94-19.15l148.3-21.61c.27,1.53.56,3.06.87,4.58Z" style="fill: #231f20;"/>
  <path d="M166.49,371.8l-148.45,23.94c-8.3,1.34-16.12-4.31-17.46-12.61-1.58-9.2,5.88-17.83,15.2-17.65l150.36,1.63c.1,1.57.22,3.13.35,4.69Z" style="fill: #231f20;"/>
  <path d="M165.94,338.2c-.08,1.64-.15,3.29-.2,4.93l-149.94,1.24c-8.66.08-15.73-6.88-15.8-15.54-.18-9.64,8.8-17.26,18.28-15.58l147.66,24.95Z" style="fill: #231f20;"/>
  <path d="M169,309.9c-.3,1.77-.57,3.54-.83,5.32l-146.93-21.05c-8.81-1.26-14.93-9.42-13.67-18.23,1.31-9.86,11.68-16.23,21.07-13l140.36,46.96Z" style="fill: #231f20;"/>
  <path d="M175.27,282.25c-.57,1.94-1.1,3.88-1.61,5.84l-139.76-41.79c-8.77-2.62-13.75-11.85-11.13-20.61,2.84-9.85,14.41-14.74,23.46-9.97l129.04,66.53Z" style="fill: #231f20;"/>
  <path d="M184.81,255.17c-.9,2.14-1.77,4.29-2.6,6.46l-129-60.16c-8.52-3.96-12.2-14.08-8.23-22.59,4.36-9.62,16.91-12.85,25.38-6.59l114.45,82.88Z" style="fill: #231f20;"/>
  <path d="M197.81,228.75c-1.34,2.35-2.64,4.73-3.9,7.13l-115.31-75.56c-8.06-5.28-10.32-16.1-5.03-24.16,5.85-9.15,19.13-10.56,26.8-2.9l97.44,95.49Z" style="fill: #231f20;"/>
  <path d="M214.43,203.29c-1.89,2.54-3.74,5.12-5.53,7.74l-99.37-87.63c-7.41-6.54-8.12-17.85-1.59-25.26,7.3-8.47,21.05-7.92,27.69,1.04l78.8,104.11Z" style="fill: #231f20;"/>
  <path d="M234.87,179.18c-2.58,2.68-5.11,5.42-7.57,8.22l-81.81-96.16c-6.56-7.71-5.63-19.29,2.08-25.85,8.66-7.55,22.59-4.93,27.98,5.18l59.32,108.61Z" style="fill: #231f20;"/>
  <path d="M259.35,156.95c-3.42,2.71-6.77,5.51-10.04,8.41l-63.32-100.93c-5.52-8.79-2.86-20.38,5.93-25.9,9.92-6.39,23.7-1.63,27.63,9.47l39.8,108.95Z" style="fill: #231f20;"/>
  <path d="M288.12,137.23c-4.41,2.59-8.74,5.31-12.97,8.15l-44.64-101.8c-4.27-9.73.16-21.07,9.89-25.34,11.03-5,24.32,1.95,26.58,13.82l21.14,105.17Z" style="fill: #231f20;"/>
  <path d="M321.4,120.95c-5.53,2.2-10.96,4.6-16.28,7.19l-26.66-98.79c-2.84-10.5,3.37-21.3,13.87-24.13,10.49-2.83,21.29,3.38,24.13,13.87.36,1.34.57,2.77.65,4.1v.16s4.29,97.6,4.29,97.6Z" style="fill: #231f20;"/>
  <path d="M369.12,22.41l-9.8,86.85c-6.71,1.48-13.32,3.24-19.81,5.26l-10.39-92.11c-1.25-11.05,6.7-21.01,17.74-22.26,12.66-1.59,23.82,9.64,22.26,22.26Z" style="fill: #231f20;"/>
</svg>