<?xml version="1.0" encoding="UTF-8"?>
<svg id="Layer_1" data-name="Layer 1" xmlns="http://www.w3.org/2000/svg" viewBox="0 0 687.65 700.15">
  <path d="M421.84,320.53c0,7.87-.45,13.73-1.33,17.57-.89,3.83-2.41,6.44-4.58,7.82-2.16,1.38-5.31,2.06-9.44,2.06-1.28,0-2.56-.02-3.84-.03v-56.31c1.42-.03,2.8-.04,4.13-.04,3.94,0,6.94.79,9.01,2.36,2.06,1.58,3.58,4.43,4.57,8.56.98,4.14,1.48,10.14,1.48,18.01Z" style="fill: #231f20;"/>
  <path d="M630.4,362.96l-261.4,150.92c-12.8,7.39-28.8-1.85-28.8-16.63v-57.16h62.45v-55.3c4.09.06,7.93.1,11.51.1,25.58,0,44.63-6.45,57.13-19.34,12.49-12.89,18.74-29.47,18.74-49.74,0-12.99-2.26-24.06-6.79-33.21-4.53-9.16-12.99-16.43-25.39-21.85-12.4-5.41-29.91-8.12-52.54-8.12-14.57,0-31.3.4-50.19,1.18-3.15,0-8.12.18-14.92.52v-58.91c0-14.78,16-24.02,28.8-16.63l261.4,150.91c12.8,7.4,12.8,25.87,0,33.26Z" style="fill: #231f20;"/>
  <path d="M227.74,440.68c-9.94-2.16-19.83-5.41-29.67-9.74l5.9-43.69c9.84,3.35,18.99,5.9,27.45,7.67,8.46,1.77,15.94,2.66,22.44,2.66,5.71,0,9.89-.83,12.55-2.51,2.66-1.67,3.99-4.47,3.99-8.41,0-2.75-.79-5.12-2.36-7.08-1.58-1.96-4.13-4.08-7.67-6.35-3.54-2.26-9.15-5.46-16.83-9.59-9.45-5.12-17.17-10.13-23.17-15.05-6.01-4.92-10.63-10.53-13.87-16.83-3.25-6.3-4.87-13.68-4.87-22.14,0-10.82,2.85-20.71,8.56-29.67,5.71-8.95,14.36-16.09,25.98-21.4,11.61-5.31,25.88-7.97,42.8-7.97,9.45,0,18.64.89,27.6,2.66,8.95,1.77,16.97,4.13,24.06,7.08l-6.79,45.17c-6.5-2.36-13.29-4.18-20.37-5.46-7.08-1.28-13.68-1.92-19.78-1.92-5.51,0-9.84.88-12.99,2.66-3.15,1.77-4.72,4.63-4.72,8.56,0,2.36.83,4.53,2.51,6.5,1.67,1.97,4.82,4.23,9.45,6.79,4.62,2.56,11.66,6.01,21.11,10.33,12.4,5.51,21.89,12.15,28.49,19.93,6.59,7.78,9.89,17.96,9.89,30.55,0,19.68-6.84,34.69-20.52,45.02-13.68,10.33-32.23,15.5-55.65,15.5-12.4,0-23.57-1.08-33.51-3.25Z" style="fill: #231f20;"/>
</svg>