<?xml version="1.0" encoding="UTF-8"?>
<svg id="Layer_1" data-name="Layer 1" xmlns="http://www.w3.org/2000/svg" viewBox="0 0 1358.2 700.15">
  <defs>
    <style>
      .cls-1 {
        fill: #782d49;
      }

      .cls-2 {
        fill: #5c415e;
      }

      .cls-3 {
        fill: #71324e;
      }

      .cls-4 {
        fill: #574462;
      }

      .cls-5 {
        fill: #534765;
      }

      .cls-6 {
        fill: #5a425f;
      }

      .cls-7 {
        fill: #7a2c47;
      }

      .cls-8 {
        fill: #9d132c;
      }

      .cls-9 {
        fill: #901c36;
      }

      .cls-10 {
        fill: #6f3450;
      }

      .cls-11 {
        fill: #7f2843;
      }

      .cls-12 {
        fill: #961832;
      }

      .cls-13 {
        fill: #941a33;
      }

      .cls-14 {
        fill: #74304c;
      }

      .cls-15 {
        fill: #99162f;
      }

      .cls-16 {
        fill: #981731;
      }

      .cls-17 {
        fill: #73314d;
      }

      .cls-18 {
        fill: #85243f;
      }

      .cls-19 {
        fill: #762e4a;
      }

      .cls-20 {
        fill: #7e2944;
      }

      .cls-21 {
        fill: #8c1f39;
      }

      .cls-22 {
        fill: #8b203b;
      }

      .cls-23 {
        fill: #812742;
      }

      .cls-24 {
        fill: #554664;
      }

      .cls-25 {
        fill: #921b35;
      }

      .cls-26 {
        fill: #6b3653;
      }

      .cls-27 {
        fill: #7c2b46;
      }

      .cls-28 {
        fill: #594361;
      }

      .cls-29 {
        fill: #832540;
      }

      .cls-30 {
        fill: #87233d;
      }

      .cls-31 {
        fill: #9f122b;
      }

      .cls-32 {
        fill: #89223c;
      }

      .cls-33 {
        fill: #8e1e38;
      }

      .cls-34 {
        fill: #9b152e;
      }

      .cls-35 {
        fill: #6d3551;
      }
    </style>
  </defs>
  <g>
    <path class="cls-5" d="M403.78,26.88l-13.24,77.53c-.76.06-1.52.14-2.28.22l11.57-78.38c.45-2.61,4.33-2.03,3.95.63Z"/>
    <path class="cls-24" d="M453.29,39.03l-21.85,65.03c-1.02-.08-2.04-.15-3.06-.21l20.27-66.31c1.02-3.07,5.6-1.64,4.64,1.49Z"/>
    <path class="cls-4" d="M499.59,58.25l-27.02,52.33c-1.27-.32-2.54-.62-3.82-.91l25.69-53.97c1.73-3.42,6.84-.94,5.15,2.55Z"/>
    <path class="cls-28" d="M542.01,83.88l-29.25,40.39c-1.48-.66-2.97-1.3-4.46-1.91l28.26-42.27c2.56-3.62,7.97.09,5.45,3.79Z"/>
    <path class="cls-6" d="M579.93,115.29l-29.24,29.83c-1.61-1.08-3.23-2.14-4.87-3.18l28.63-31.8c3.47-3.65,8.92,1.42,5.48,5.15Z"/>
    <path class="cls-2" d="M612.79,151.87l-27.75,20.97c-1.63-1.57-3.28-3.12-4.95-4.64l27.49-22.9c4.46-3.48,9.63,2.98,5.21,6.57Z"/>
    <path class="cls-26" d="M637.08,533.39c-.94.14-1.92.12-2.87-.1l2.87.1Z"/>
    <path class="cls-35" d="M614.6,570.63c-2.81,3.85-8.44,4.42-11.98,1.23l-32.88-29.33c3.24-2.64,6.41-5.37,9.51-8.18l33.64,24.87c3.62,2.68,4.39,7.78,1.71,11.41Z"/>
    <path class="cls-10" d="M580.89,607.24c-3.52,3.6-9.51,3.34-12.72-.54l-33.48-40.17c3.63-2.05,7.2-4.19,10.71-6.42l35.41,34.97c3.38,3.34,3.42,8.78.08,12.16Z"/>
    <path class="cls-3" d="M542.12,638.68c-4.22,3.23-10.44,2.04-13.18-2.51l-31.88-52.38c3.86-1.39,7.67-2.87,11.43-4.45l35.37,46.68c3.02,3.97,2.24,9.64-1.74,12.66Z"/>
    <path class="cls-17" d="M498.82,664.34c-4.88,2.73-11.18.53-13.31-4.63l-27.43-65.4c3.91-.71,7.78-1.52,11.62-2.42l32.85,59.58c2.52,4.58.86,10.35-3.73,12.87Z"/>
    <path class="cls-14" d="M451.57,683.59c-5.49,2.09-11.7-1.19-13.09-6.89l-19.6-78.38c3.79-.08,7.56-.25,11.31-.51l27.21,73.02c1.91,5.14-.7,10.85-5.83,12.76Z"/>
    <path class="cls-19" d="M401.03,695.74c-6.01,1.3-11.93-3.09-12.45-9.21l-8.19-90.29c3.5.47,7.02.86,10.57,1.17l18.08,86.06c1.17,5.6-2.41,11.09-8.01,12.27Z"/>
    <path class="cls-1" d="M348.01,700.13c-6.41.4-11.83-5.09-11.37-11.49l6.6-100.25c3.14.92,6.31,1.78,9.51,2.58l5.45,97.77c.33,5.96-4.23,11.06-10.19,11.39Z"/>
    <path class="cls-7" d="M317.48,579.23l-10.26,107.04c-.59,6.18-6.08,10.71-12.26,10.11-6.69-.59-11.41-7.13-9.89-13.66l24.17-107.12c2.72,1.26,5.47,2.47,8.24,3.63Z"/>
    <path class="cls-27" d="M286.49,563.59l-28.2,112.76c-1.57,6.26-7.91,10.07-14.17,8.5-6.8-1.64-10.64-9.14-8.03-15.63l43.45-109.94c2.29,1.48,4.61,2.91,6.95,4.31Z"/>
    <path class="cls-20" d="M259.53,544.97l-47.37,114.58c-2.55,6.19-9.64,9.13-15.83,6.57-6.76-2.73-9.55-11.06-5.84-17.31l63.32-108.51c1.88,1.6,3.79,3.15,5.72,4.67Z"/>
    <path class="cls-11" d="M236.33,524.1l-66.82,112.35c-3.55,5.96-11.26,7.92-17.23,4.37-5.96-3.55-7.92-11.26-4.38-17.22.26-.44.58-.9.89-1.3.05-.06.09-.11.13-.16l82.8-102.87c1.52,1.63,3.05,3.24,4.61,4.83Z"/>
    <path class="cls-23" d="M216.66,501.45l-85.77,106.16c-4.52,5.58-12.71,6.45-18.3,1.94-6.15-4.89-6.45-14.4-.64-19.68l101.09-93.26c1.19,1.63,2.4,3.24,3.62,4.84Z"/>
    <path class="cls-29" d="M200.37,477.43l-103.52,96.13c-5.44,5.06-13.95,4.74-19.01-.7-5.6-5.93-4.48-15.75,2.29-20.28l117.47-79.92c.9,1.6,1.83,3.19,2.77,4.77Z"/>
    <path class="cls-18" d="M187.3,452.34l-119.36,82.48c-6.31,4.36-14.97,2.78-19.33-3.54-4.36-6.31-2.78-14.96,3.53-19.33.5-.34,1.07-.67,1.6-.95,0,0,.01,0,.05-.03,0,0,.01,0,.02-.01l.07-.04.13-.06,131.25-63.19c.66,1.56,1.34,3.12,2.04,4.67Z"/>
    <path class="cls-30" d="M177.34,426.36l-132.6,65.51c-7.1,3.51-15.7.6-19.21-6.5-3.95-7.8.28-17.56,8.65-20.06l141.74-43.53c.46,1.53.93,3.06,1.42,4.58Z"/>
    <path class="cls-32" d="M170.41,399.56l-142.52,45.74c-7.78,2.49-16.1-1.79-18.6-9.56-2.84-8.59,3-17.92,11.95-19.15l148.3-21.61c.27,1.54.56,3.06.87,4.58Z"/>
    <path class="cls-22" d="M166.49,371.8l-148.45,23.94c-8.31,1.34-16.12-4.31-17.46-12.61-1.58-9.21,5.87-17.83,15.2-17.65l150.36,1.63c.1,1.57.22,3.13.35,4.69Z"/>
    <path class="cls-21" d="M165.94,338.2c-.08,1.64-.15,3.28-.2,4.93l-149.94,1.24c-8.66.08-15.73-6.88-15.8-15.54-.18-9.64,8.8-17.26,18.28-15.58l147.66,24.95Z"/>
    <path class="cls-33" d="M169,309.9c-.3,1.77-.57,3.54-.83,5.32l-146.93-21.05c-8.81-1.26-14.93-9.42-13.67-18.23,1.31-9.86,11.68-16.23,21.07-13l140.36,46.96Z"/>
    <path class="cls-9" d="M175.27,282.25c-.57,1.94-1.1,3.88-1.61,5.84l-139.77-41.79c-8.76-2.62-13.74-11.85-11.12-20.61,2.83-9.85,14.41-14.74,23.46-9.97l129.04,66.53Z"/>
    <path class="cls-25" d="M184.81,255.16c-.9,2.14-1.77,4.3-2.6,6.47l-129.01-60.16c-8.51-3.96-12.19-14.08-8.22-22.59,4.35-9.62,16.91-12.85,25.38-6.59l114.45,82.87Z"/>
    <path class="cls-13" d="M197.81,228.75c-1.34,2.35-2.64,4.73-3.9,7.13l-115.31-75.56c-8.07-5.28-10.32-16.1-5.04-24.16,5.85-9.15,19.14-10.56,26.81-2.9l97.44,95.49Z"/>
    <path class="cls-12" d="M214.43,203.29c-1.89,2.54-3.74,5.12-5.53,7.74l-99.37-87.64c-7.42-6.53-8.12-17.84-1.59-25.25,7.3-8.47,21.05-7.92,27.69,1.04l78.8,104.11Z"/>
    <path class="cls-16" d="M234.87,179.19c-2.59,2.68-5.12,5.42-7.57,8.22l-81.81-96.17c-6.57-7.71-5.63-19.29,2.08-25.85,8.66-7.55,22.59-4.93,27.98,5.18l59.32,108.62Z"/>
    <path class="cls-15" d="M259.35,156.95c-3.42,2.71-6.77,5.51-10.04,8.41l-63.32-100.93c-5.52-8.79-2.86-20.38,5.93-25.9,9.92-6.39,23.7-1.63,27.63,9.47l39.8,108.95Z"/>
    <path class="cls-34" d="M288.11,137.23c-4.41,2.59-8.73,5.31-12.96,8.16l-44.64-101.81c-4.27-9.73.16-21.08,9.89-25.34,11.03-5,24.32,1.95,26.58,13.82l21.13,105.17Z"/>
    <path class="cls-8" d="M321.4,120.95c-5.53,2.2-10.96,4.6-16.28,7.19l-26.67-98.79c-2.83-10.5,3.38-21.3,13.87-24.13,10.5-2.83,21.3,3.37,24.13,13.87.37,1.34.58,2.77.65,4.1v.16s4.3,97.6,4.3,97.6Z"/>
    <path class="cls-31" d="M369.12,22.41l-9.8,86.84c-6.71,1.49-13.32,3.25-19.81,5.27l-10.39-92.11c-1.25-11.05,6.7-21.01,17.74-22.26,12.66-1.59,23.82,9.63,22.26,22.26Z"/>
  </g>
  <g>
    <path class="cls-5" d="M337.93,300.14c-4.14.77-8.28,1.15-12.42,1.15-6.44,0-11.58-1.38-15.41-4.14-3.83-2.76-6.63-6.98-8.39-12.65-1.76-5.67-2.64-13.19-2.64-22.54s1.04-16.75,3.1-22.19c2.07-5.44,5.1-9.35,9.08-11.73,3.99-2.38,9.04-3.57,15.18-3.57,7.51,0,15.72,1.08,24.61,3.22l3.91-34.73c-6.44-2.15-12.46-3.72-18.06-4.71-5.6-1-11.92-1.5-18.97-1.5-14.11,0-26.6,3.3-37.49,9.89-10.89,6.59-19.4,15.91-25.53,27.94-6.13,12.04-9.2,25.8-9.2,41.29s2.83,27.91,8.51,38.64c5.67,10.74,13.72,18.9,24.15,24.5,10.42,5.6,22.54,8.4,36.34,8.4,16.25,0,29.82-2.76,40.71-8.28l-4.14-32.2c-4.75,1.38-9.2,2.46-13.34,3.22Z"/>
    <path class="cls-5" d="M404.17,189.73l-42.78,144.67h53.59l3.71-22.31h29.2l4.12,22.31h52.21l-41.63-144.67h-58.42ZM424.54,276.9l8-48.06,8.86,48.06h-16.86Z"/>
    <path class="cls-5" d="M604.27,194.68c-9.66-4.22-23.31-6.33-40.94-6.33-11.35,0-24.38.31-39.1.92-2.61,0-6.83.15-12.65.46v144.67h49.68v-43.08c3.19.05,6.18.07,8.97.07,19.93,0,34.77-5.02,44.5-15.07,9.74-10.04,14.61-22.96,14.61-38.75,0-10.12-1.77-18.75-5.29-25.88-3.53-7.13-10.12-12.8-19.78-17.02ZM575.17,254.94c-.69,2.99-1.88,5.02-3.56,6.09-1.69,1.07-4.14,1.61-7.36,1.61-1,0-1.99-.02-2.99-.03v-43.87c1.1-.02,2.18-.03,3.22-.03,3.07,0,5.41.62,7.01,1.84,1.61,1.23,2.8,3.45,3.57,6.67.76,3.22,1.15,7.9,1.15,14.03s-.34,10.7-1.04,13.69Z"/>
    <polygon class="cls-5" points="641.07 217.79 653.26 217.79 653.26 306.81 641.3 306.81 641.07 334.4 715.36 334.4 715.36 306.81 703.63 306.81 703.63 217.79 715.36 217.79 715.36 189.73 641.3 189.73 641.07 217.79"/>
    <polygon class="cls-5" points="835.64 225.15 837.02 189.73 723.86 189.73 725.47 225.15 755.14 225.15 755.14 334.4 805.51 334.4 805.51 225.15 835.64 225.15"/>
    <path class="cls-5" d="M869.23,189.73l-42.78,144.67h53.59l3.71-22.31h29.2l4.11,22.31h52.21l-41.63-144.67h-58.42ZM889.6,276.9l8-48.06,8.86,48.06h-16.86Z"/>
    <polygon class="cls-5" points="1070.01 298.98 1027 298.98 1027 189.73 976.63 189.73 976.63 334.4 1070.93 334.4 1070.01 298.98"/>
  </g>
  <g>
    <path class="cls-31" d="M350.24,365.02c-10.66-4.6-24.34-6.9-41.06-6.9s-33.73.38-51.06,1.15l-7.36.46v144.67c22.08.92,40.94,1.38,56.58,1.38,17.33,0,31.55-2.83,42.67-8.51,11.12-5.67,19.32-14.11,24.61-25.3,5.29-11.19,7.94-25.15,7.94-41.86,0-17.79-2.72-31.93-8.17-42.43-5.44-10.5-13.49-18.06-24.15-22.66ZM327.01,458.17c-1.3,5.83-3.49,9.89-6.55,12.19-3.07,2.3-7.59,3.45-13.57,3.45-1.89,0-3.88-.03-5.98-.1v-82.77c2.22-.1,4.45-.16,6.67-.16,5.98,0,10.46,1.11,13.46,3.33,2.99,2.22,5.06,6.25,6.21,12.08,1.15,5.83,1.72,14.57,1.72,26.22s-.65,19.93-1.96,25.76Z"/>
    <path class="cls-31" d="M463.28,356.74c-14.41,0-27.1,2.95-38.06,8.86-10.96,5.9-19.44,14.49-25.42,25.76-5.98,11.27-8.97,24.72-8.97,40.37,0,24.07,5.82,42.7,17.48,55.89,11.65,13.19,29.29,19.78,52.9,19.78,14.41,0,26.83-3.18,37.26-9.54,10.42-6.36,18.4-15.37,23.92-27.03,5.52-11.65,8.28-25.22,8.28-40.71,0-23.31-5.79-41.36-17.37-54.17-11.58-12.8-28.25-19.21-50.03-19.21ZM475.01,457.94c-1.23,6.13-2.88,10.2-4.95,12.19-2.07,1.99-4.79,2.99-8.17,2.99-3.68,0-6.67-.96-8.97-2.88-2.3-1.92-4.1-5.9-5.41-11.96-1.3-6.06-1.96-14.99-1.96-26.79,0-14.57,1.42-24.34,4.25-29.33,2.84-4.98,6.71-7.47,11.62-7.47,5.52,0,9.47,2.61,11.85,7.82,2.38,5.21,3.56,14.64,3.56,28.29,0,11.96-.62,21.01-1.84,27.14Z"/>
    <polygon class="cls-31" points="584.72 504.4 633.48 504.4 633.48 453.81 674.65 453.81 674.65 418.85 633.48 418.85 633.48 394.92 680.17 394.92 682.24 359.73 584.72 359.73 584.72 504.4"/>
    <path class="cls-31" d="M766.65,454.49c0,5.98-.88,10.31-2.64,13-1.76,2.68-4.79,4.03-9.08,4.03-4.6,0-7.75-1.38-9.43-4.14-1.69-2.76-2.53-7.67-2.53-14.72v-92.92h-50.14v86.48c0,19.63,5.06,34.73,15.18,45.31s25.76,15.87,46.92,15.87,35.57-5.21,46-15.64c10.43-10.42,15.64-25.68,15.64-45.77v-86.25h-49.91v94.76Z"/>
    <polygon class="cls-31" points="826.9 395.15 856.57 395.15 856.57 504.4 906.94 504.4 906.94 395.15 937.07 395.15 938.45 359.73 825.29 359.73 826.9 395.15"/>
    <path class="cls-31" d="M1021.02,454.49c0,5.98-.88,10.31-2.64,13-1.76,2.68-4.79,4.03-9.08,4.03-4.6,0-7.75-1.38-9.43-4.14-1.69-2.76-2.53-7.67-2.53-14.72v-92.92h-50.14v86.48c0,19.63,5.06,34.73,15.18,45.31s25.76,15.87,46.92,15.87,35.57-5.21,46-15.64c10.43-10.42,15.64-25.68,15.64-45.77v-86.25h-49.91v94.76Z"/>
    <path class="cls-31" d="M1189.26,450.47c-1.12-1.81-2.23-3.55-3.33-5.25,4.84-2.47,9.09-5.71,12.76-9.7,6.67-7.28,10.01-18.13,10.01-32.54,0-10.89-2.46-19.59-7.36-26.11-4.91-6.52-12.23-11.19-21.96-14.03-9.74-2.83-22.19-4.25-37.38-4.25-16.71,0-30.75.23-42.09.69-3.68.15-7.44.31-11.27.46v144.67h49.68v-51.33c1.58-.02,3.13-.06,4.66-.11l17.88,51.44h55.43l-18.17-38.41c-1.69-3.53-4.64-8.7-8.86-15.52ZM1138.32,389.01c1.77-.04,3.46-.07,5.06-.07,3.68,0,6.44.61,8.28,1.84,1.84,1.23,3.07,3.11,3.68,5.63.61,2.53.92,6.17.92,10.93,0,5.21-.61,9.05-1.84,11.5-1.23,2.45-2.99,4.02-5.29,4.71-2.3.69-5.52,1.04-9.66,1.04-.38,0-.77,0-1.15,0v-35.57Z"/>
    <path class="cls-31" d="M1340.83,375.95c-11.58-12.8-28.25-19.21-50.03-19.21-14.41,0-27.1,2.95-38.06,8.86-10.96,5.9-19.44,14.49-25.42,25.76-5.98,11.27-8.97,24.72-8.97,40.37,0,24.07,5.82,42.7,17.48,55.89,11.65,13.19,29.29,19.78,52.9,19.78,14.41,0,26.83-3.18,37.26-9.54,10.42-6.36,18.4-15.37,23.92-27.03,5.52-11.65,8.28-25.22,8.28-40.71,0-23.31-5.79-41.36-17.37-54.17ZM1302.54,457.94c-1.23,6.13-2.88,10.2-4.95,12.19-2.07,1.99-4.79,2.99-8.17,2.99-3.68,0-6.67-.96-8.97-2.88-2.3-1.92-4.1-5.9-5.41-11.96-1.3-6.06-1.96-14.99-1.96-26.79,0-14.57,1.42-24.34,4.25-29.33,2.84-4.98,6.71-7.47,11.62-7.47,5.52,0,9.47,2.61,11.85,7.82,2.38,5.21,3.56,14.64,3.56,28.29,0,11.96-.62,21.01-1.84,27.14Z"/>
  </g>
</svg>