<?xml version="1.0" encoding="UTF-8"?>
<svg id="Layer_1" data-name="Layer 1" xmlns="http://www.w3.org/2000/svg" viewBox="0 0 1652.25 700.15">
  <g>
    <g>
      <path d="M403.78,26.88l-13.24,77.53c-.76.06-1.52.14-2.28.22l11.57-78.38c.45-2.61,4.33-2.03,3.95.63Z"/>
      <path d="M453.29,39.03l-21.85,65.03c-1.02-.08-2.04-.15-3.06-.21l20.27-66.31c1.02-3.07,5.6-1.64,4.64,1.49Z"/>
      <path d="M499.59,58.25l-27.02,52.33c-1.27-.32-2.54-.62-3.82-.91l25.69-53.97c1.73-3.42,6.83-.94,5.15,2.55Z"/>
      <path d="M542.01,83.88l-29.25,40.39c-1.48-.66-2.97-1.3-4.46-1.91l28.26-42.27c2.56-3.62,7.97.09,5.45,3.79Z"/>
      <path d="M579.93,115.29l-29.24,29.83c-1.61-1.08-3.23-2.14-4.87-3.18l28.63-31.8c3.47-3.65,8.92,1.42,5.48,5.15Z"/>
      <path d="M612.79,151.87l-27.75,20.97c-1.63-1.57-3.28-3.12-4.95-4.64l27.49-22.9c4.46-3.48,9.63,2.98,5.21,6.57Z"/>
      <path d="M614.6,570.63c-2.81,3.85-8.44,4.42-11.98,1.23l-32.88-29.33c3.24-2.64,6.41-5.37,9.51-8.18l33.64,24.87c3.62,2.68,4.39,7.78,1.71,11.41Z"/>
      <path d="M580.89,607.24c-3.52,3.6-9.51,3.35-12.72-.54l-33.48-40.17c3.63-2.05,7.2-4.19,10.71-6.42l35.41,34.97c3.38,3.34,3.42,8.78.08,12.16Z"/>
      <path d="M542.12,638.68c-4.22,3.23-10.44,2.04-13.18-2.51l-31.88-52.38c3.86-1.39,7.67-2.87,11.43-4.45l35.37,46.68c3.02,3.97,2.24,9.64-1.74,12.66Z"/>
      <path d="M498.82,664.34c-4.88,2.73-11.18.53-13.31-4.63l-27.43-65.4c3.91-.71,7.78-1.52,11.62-2.42l32.85,59.58c2.52,4.58.86,10.35-3.73,12.87Z"/>
      <path d="M451.57,683.59c-5.49,2.09-11.7-1.19-13.09-6.89l-19.6-78.38c3.79-.08,7.56-.25,11.31-.51l27.21,73.02c1.91,5.14-.7,10.85-5.83,12.76Z"/>
      <path d="M401.03,695.74c-6.01,1.3-11.93-3.08-12.45-9.21l-8.19-90.29c3.5.47,7.02.86,10.57,1.17l18.08,86.06c1.17,5.6-2.41,11.09-8.01,12.27Z"/>
      <path d="M348.01,700.13c-6.41.4-11.84-5.09-11.37-11.49l6.6-100.25c3.14.92,6.31,1.78,9.51,2.58l5.45,97.77c.33,5.96-4.23,11.06-10.19,11.39Z"/>
      <path d="M317.48,579.23l-10.26,107.04c-.59,6.18-6.08,10.71-12.26,10.11-6.69-.59-11.41-7.13-9.89-13.66l24.17-107.12c2.72,1.26,5.47,2.47,8.24,3.63Z"/>
      <path d="M286.49,563.59l-28.2,112.76c-1.57,6.26-7.91,10.07-14.17,8.5-6.8-1.64-10.64-9.14-8.03-15.63l43.45-109.94c2.29,1.48,4.61,2.91,6.95,4.31Z"/>
      <path d="M259.53,544.97l-47.37,114.58c-2.55,6.19-9.64,9.13-15.83,6.57-6.76-2.73-9.55-11.06-5.84-17.31l63.32-108.51c1.88,1.6,3.79,3.15,5.72,4.67Z"/>
      <path d="M236.33,524.1l-66.82,112.35c-3.55,5.96-11.26,7.92-17.23,4.37-5.96-3.55-7.92-11.26-4.38-17.22.26-.44.58-.9.89-1.3.05-.06.09-.11.13-.16l82.8-102.87c1.52,1.63,3.05,3.24,4.61,4.83Z"/>
      <path d="M216.66,501.45l-85.77,106.16c-4.52,5.58-12.71,6.45-18.3,1.94-6.15-4.89-6.45-14.4-.64-19.68l101.09-93.26c1.19,1.63,2.4,3.24,3.62,4.84Z"/>
      <path d="M200.37,477.43l-103.52,96.13c-5.44,5.06-13.95,4.74-19.01-.7-5.6-5.93-4.48-15.75,2.29-20.28l117.47-79.92c.9,1.6,1.83,3.19,2.77,4.77Z"/>
      <path d="M187.3,452.34l-119.36,82.48c-6.31,4.36-14.97,2.78-19.33-3.54-4.36-6.31-2.78-14.97,3.53-19.33.5-.34,1.07-.67,1.6-.95,0,0,0,0,.05-.03,0,0,0,0,.02-.01l.07-.04.13-.06,131.25-63.19c.66,1.56,1.34,3.12,2.04,4.67Z"/>
      <path d="M177.34,426.36l-132.6,65.51c-7.1,3.51-15.7.6-19.21-6.5-3.95-7.8.28-17.56,8.65-20.06l141.74-43.53c.46,1.53.93,3.06,1.42,4.58Z"/>
      <path d="M170.41,399.56l-142.52,45.74c-7.78,2.49-16.1-1.79-18.6-9.56-2.84-8.59,3-17.92,11.95-19.15l148.3-21.61c.27,1.54.56,3.06.87,4.58Z"/>
      <path d="M166.49,371.8l-148.45,23.94c-8.31,1.34-16.12-4.31-17.46-12.61-1.58-9.21,5.87-17.83,15.2-17.65l150.36,1.63c.1,1.57.22,3.13.35,4.69Z"/>
      <path d="M165.94,338.2c-.08,1.64-.15,3.28-.2,4.93l-149.94,1.24c-8.66.08-15.73-6.88-15.8-15.54-.18-9.64,8.8-17.26,18.28-15.58l147.66,24.95Z"/>
      <path d="M169,309.9c-.3,1.77-.57,3.54-.83,5.32l-146.93-21.05c-8.81-1.26-14.93-9.42-13.67-18.23,1.31-9.86,11.68-16.23,21.07-13l140.36,46.96Z"/>
      <path d="M175.27,282.25c-.57,1.94-1.1,3.88-1.61,5.84l-139.77-41.79c-8.76-2.62-13.74-11.85-11.12-20.61,2.83-9.85,14.41-14.74,23.46-9.97l129.04,66.53Z"/>
      <path d="M184.81,255.16c-.9,2.14-1.77,4.3-2.6,6.47l-129.01-60.16c-8.51-3.96-12.19-14.08-8.22-22.59,4.35-9.62,16.91-12.85,25.38-6.59l114.45,82.87Z"/>
      <path d="M197.81,228.75c-1.34,2.35-2.64,4.73-3.9,7.13l-115.31-75.56c-8.07-5.28-10.32-16.1-5.04-24.16,5.85-9.15,19.14-10.56,26.81-2.9l97.44,95.49Z"/>
      <path d="M214.43,203.29c-1.89,2.54-3.74,5.12-5.53,7.74l-99.37-87.64c-7.42-6.53-8.12-17.84-1.59-25.25,7.3-8.47,21.05-7.92,27.69,1.04l78.8,104.11Z"/>
      <path d="M234.87,179.19c-2.59,2.68-5.12,5.42-7.57,8.22l-81.81-96.17c-6.57-7.71-5.63-19.29,2.08-25.85,8.66-7.55,22.59-4.93,27.98,5.18l59.32,108.62Z"/>
      <path d="M259.35,156.95c-3.42,2.71-6.77,5.51-10.04,8.41l-63.32-100.93c-5.52-8.79-2.86-20.38,5.93-25.9,9.92-6.39,23.7-1.63,27.62,9.47l39.81,108.95Z"/>
      <path d="M288.11,137.23c-4.41,2.59-8.73,5.31-12.96,8.16l-44.64-101.81c-4.27-9.73.16-21.08,9.89-25.34,11.03-5,24.32,1.95,26.58,13.82l21.13,105.17Z"/>
      <path d="M321.4,120.95c-5.53,2.2-10.96,4.6-16.28,7.19l-26.67-98.79c-2.83-10.5,3.38-21.3,13.87-24.13,10.5-2.83,21.3,3.37,24.13,13.87.37,1.34.58,2.77.65,4.1v.16s4.3,97.6,4.3,97.6Z"/>
      <path d="M369.12,22.41l-9.8,86.84c-6.71,1.49-13.32,3.25-19.81,5.27l-10.39-92.11c-1.25-11.05,6.7-21.01,17.74-22.26,12.66-1.59,23.82,9.63,22.26,22.26Z"/>
    </g>
    <g>
      <path d="M336.93,310.14c-4.14.77-8.28,1.15-12.42,1.15-6.44,0-11.58-1.38-15.41-4.14-3.83-2.76-6.63-6.98-8.39-12.65-1.76-5.67-2.64-13.19-2.64-22.54s1.04-16.75,3.1-22.19c2.07-5.44,5.1-9.35,9.08-11.73,3.99-2.38,9.04-3.57,15.18-3.57,7.51,0,15.72,1.08,24.61,3.22l3.91-34.73c-6.44-2.15-12.46-3.72-18.06-4.71-5.6-1-11.92-1.5-18.97-1.5-14.11,0-26.6,3.3-37.49,9.89-10.89,6.59-19.4,15.91-25.53,27.94-6.13,12.04-9.2,25.8-9.2,41.29s2.83,27.91,8.51,38.64c5.67,10.74,13.72,18.9,24.15,24.5,10.42,5.6,22.54,8.4,36.34,8.4,16.25,0,29.82-2.76,40.71-8.28l-4.14-32.2c-4.75,1.38-9.2,2.46-13.34,3.22Z"/>
      <polygon points="364.99 227.79 377.18 227.79 377.18 316.81 365.22 316.81 364.99 344.4 439.28 344.4 439.28 316.81 427.55 316.81 427.55 227.79 439.28 227.79 439.28 199.73 365.22 199.73 364.99 227.79"/>
      <path d="M580.38,227.68c-5.45-10.5-13.5-18.06-24.15-22.66-10.66-4.6-24.34-6.9-41.05-6.9s-33.73.38-51.06,1.15l-7.36.46v144.67c22.08.92,40.94,1.38,56.58,1.38,17.32,0,31.54-2.83,42.66-8.51,11.12-5.67,19.32-14.11,24.61-25.3,5.29-11.19,7.93-25.15,7.93-41.86,0-17.79-2.72-31.93-8.16-42.43ZM533,298.17c-1.3,5.83-3.49,9.89-6.55,12.19-3.07,2.3-7.59,3.45-13.57,3.45-1.89,0-3.89-.03-5.98-.1v-82.77c2.22-.1,4.45-.16,6.67-.16,5.98,0,10.46,1.11,13.45,3.33,2.99,2.22,5.06,6.25,6.21,12.08,1.15,5.83,1.72,14.57,1.72,26.22s-.65,19.93-1.96,25.76Z"/>
      <path d="M627.65,199.73l-42.78,144.67h53.59l3.71-22.31h29.2l4.11,22.31h52.21l-41.63-144.67h-58.42ZM648.02,286.9l7.99-48.06,8.86,48.06h-16.86Z"/>
      <path d="M834.53,205.02c-10.66-4.6-24.34-6.9-41.06-6.9s-33.73.38-51.06,1.15l-7.36.46v144.67c22.08.92,40.94,1.38,56.58,1.38,17.33,0,31.55-2.83,42.67-8.51,11.12-5.67,19.32-14.11,24.61-25.3,5.29-11.19,7.94-25.15,7.94-41.86,0-17.79-2.72-31.93-8.17-42.43-5.44-10.5-13.49-18.06-24.15-22.66ZM811.3,298.17c-1.3,5.83-3.49,9.89-6.55,12.19-3.07,2.3-7.59,3.45-13.57,3.45-1.89,0-3.88-.03-5.98-.1v-82.77c2.22-.1,4.45-.16,6.67-.16,5.98,0,10.46,1.11,13.46,3.33,2.99,2.22,5.06,6.25,6.21,12.08,1.15,5.83,1.72,14.57,1.72,26.22s-.65,19.93-1.96,25.76Z"/>
      <polygon points="977.7 309.21 930.32 309.21 930.32 288.74 970.57 288.74 970.57 254.24 930.32 254.24 930.32 234.92 976.32 234.92 978.16 199.73 881.57 199.73 881.57 344.4 978.4 344.4 977.7 309.21"/>
    </g>
    <g>
      <polygon points="288.7 456.56 288.7 440.21 320.84 440.21 320.84 412.66 288.7 412.66 288.7 397.23 325.43 397.23 326.9 369.13 249.76 369.13 249.76 484.66 327.09 484.66 326.54 456.56 288.7 456.56"/>
      <path d="M422.96,369.13l-13.59,51.98c-1.22,4.48-2.42,9.17-3.62,14.07-1.12-5.45-2.3-10.45-3.54-14.99l-13.22-51.06h-48.67l-5.33,115.53h36.37l-1.06-73.33,18.14,62.68h30.31l17.77-63.18-.14,73.83h35.45l-3.12-115.53h-45.73Z"/>
      <path d="M557.77,373.08c-7.71-3.37-18.61-5.05-32.69-5.05-9.06,0-19.47.25-31.22.73-2.08,0-5.45.12-10.1.37v115.53h39.67v-34.4c2.55.04,4.94.06,7.16.06,15.92,0,27.76-4.01,35.54-12.03,7.77-8.02,11.66-18.34,11.66-30.95,0-8.08-1.41-14.97-4.22-20.66-2.82-5.69-8.08-10.22-15.8-13.59ZM534.54,421.2c-.55,2.39-1.5,4.01-2.85,4.87-1.35.86-3.31,1.29-5.88,1.29-.8,0-1.59-.02-2.39-.02v-35.04c.88-.01,1.74-.02,2.57-.02,2.45,0,4.32.49,5.6,1.47,1.29.98,2.23,2.75,2.85,5.33.61,2.57.92,6.31.92,11.2s-.28,8.54-.83,10.93Z"/>
      <path d="M669.35,441.59c-.89-1.44-1.78-2.84-2.66-4.19,3.86-1.97,7.26-4.56,10.19-7.75,5.33-5.81,7.99-14.48,7.99-25.99,0-8.69-1.96-15.64-5.88-20.85-3.92-5.2-9.77-8.94-17.54-11.2-7.78-2.26-17.72-3.4-29.85-3.4-13.35,0-24.55.18-33.61.55-2.94.12-5.94.25-9,.37v115.53h39.67v-40.99c1.26-.02,2.5-.05,3.72-.09l14.28,41.08h44.26l-14.51-30.67c-1.35-2.82-3.7-6.95-7.07-12.4ZM628.67,392.51c1.41-.03,2.76-.05,4.04-.05,2.94,0,5.14.49,6.61,1.47,1.47.98,2.45,2.48,2.94,4.5.49,2.02.73,4.93.73,8.72,0,4.16-.49,7.23-1.47,9.18-.98,1.96-2.39,3.21-4.23,3.77-1.84.55-4.41.83-7.71.83-.3,0-.61,0-.92,0v-28.41Z"/>
      <polygon points="737.03 456.56 737.03 440.21 769.18 440.21 769.18 412.66 737.03 412.66 737.03 397.23 773.77 397.23 775.24 369.13 698.1 369.13 698.1 484.66 775.42 484.66 774.87 456.56 737.03 456.56"/>
      <polygon points="826.11 456.56 826.11 440.21 858.26 440.21 858.26 412.66 826.11 412.66 826.11 397.23 862.85 397.23 864.32 369.13 787.17 369.13 787.17 484.66 864.5 484.66 863.95 456.56 826.11 456.56"/>
      <path d="M945.86,435.54c-.65-1.91-1.26-3.69-1.84-5.34-2.33-6.67-4.84-13.07-7.53-19.19l-18.18-41.88h-42.06v115.53h32.88v-67.95c.06.18.12.37.18.55,2.82,8.33,6.12,16.78,9.92,25.35l18.73,42.06h40.96v-115.53h-33.06v66.41Z"/>
      <path d="M1074.16,373.36c-8.51-3.67-19.44-5.51-32.79-5.51s-26.94.31-40.78.92l-5.88.37v115.53c17.63.73,32.69,1.1,45.18,1.1,13.83,0,25.19-2.26,34.07-6.8,8.88-4.53,15.43-11.26,19.65-20.2,4.22-8.94,6.34-20.08,6.34-33.43,0-14.2-2.18-25.5-6.52-33.89-4.35-8.39-10.78-14.42-19.29-18.09ZM1055.6,447.74c-1.04,4.65-2.79,7.9-5.23,9.73-2.45,1.84-6.06,2.76-10.84,2.76-1.51,0-3.1-.03-4.78-.08v-66.1c1.78-.08,3.55-.13,5.33-.13,4.78,0,8.36.89,10.74,2.66,2.39,1.78,4.04,4.99,4.96,9.64.92,4.65,1.38,11.63,1.38,20.94s-.52,15.92-1.56,20.57Z"/>
      <polygon points="1150.65 456.56 1150.65 440.21 1182.8 440.21 1182.8 412.66 1150.65 412.66 1150.65 397.23 1187.39 397.23 1188.86 369.13 1111.72 369.13 1111.72 484.66 1189.04 484.66 1188.49 456.56 1150.65 456.56"/>
      <path d="M1280.23,373.36c-8.51-3.67-19.44-5.51-32.79-5.51s-26.94.31-40.78.92l-5.88.37v115.53c17.63.73,32.69,1.1,45.18,1.1,13.84,0,25.19-2.26,34.07-6.8,8.88-4.53,15.43-11.26,19.65-20.2,4.22-8.94,6.34-20.08,6.34-33.43,0-14.2-2.18-25.5-6.52-33.89-4.35-8.39-10.78-14.42-19.29-18.09ZM1261.68,447.74c-1.04,4.65-2.79,7.9-5.23,9.73-2.45,1.84-6.06,2.76-10.84,2.76-1.51,0-3.1-.03-4.78-.08v-66.1c1.78-.08,3.55-.13,5.33-.13,4.78,0,8.36.89,10.74,2.66,2.39,1.78,4.04,4.99,4.96,9.64.92,4.65,1.38,11.63,1.38,20.94s-.52,15.92-1.56,20.57Z"/>
      <path d="M1370.5,366.74c-11.51,0-21.64,2.36-30.4,7.07-8.76,4.71-15.52,11.57-20.3,20.57-4.78,9-7.16,19.74-7.16,32.23,0,19.22,4.65,34.1,13.96,44.63,9.3,10.53,23.39,15.8,42.24,15.8,11.51,0,21.43-2.54,29.75-7.62,8.33-5.08,14.69-12.27,19.1-21.58,4.41-9.3,6.61-20.14,6.61-32.51,0-18.61-4.62-33.03-13.87-43.25-9.25-10.22-22.56-15.34-39.95-15.34ZM1379.87,447.56c-.98,4.9-2.3,8.14-3.95,9.73-1.65,1.59-3.83,2.39-6.52,2.39-2.94,0-5.33-.76-7.16-2.3-1.84-1.53-3.28-4.71-4.32-9.55-1.04-4.84-1.56-11.97-1.56-21.4,0-11.63,1.13-19.44,3.4-23.42,2.26-3.98,5.35-5.97,9.28-5.97,4.41,0,7.56,2.08,9.46,6.25,1.9,4.16,2.85,11.69,2.85,22.59,0,9.55-.49,16.78-1.47,21.67Z"/>
      <path d="M1516.43,441.59c-.89-1.44-1.78-2.84-2.66-4.19,3.87-1.97,7.26-4.56,10.19-7.75,5.33-5.81,7.99-14.48,7.99-25.99,0-8.69-1.96-15.64-5.88-20.85-3.92-5.2-9.77-8.94-17.54-11.2-7.78-2.26-17.72-3.4-29.85-3.4-13.35,0-24.55.18-33.61.55-2.94.12-5.94.25-9,.37v115.53h39.67v-40.99c1.26-.02,2.5-.05,3.72-.09l14.28,41.08h44.26l-14.51-30.67c-1.35-2.82-3.7-6.95-7.07-12.4ZM1475.75,392.51c1.41-.03,2.76-.05,4.04-.05,2.94,0,5.14.49,6.61,1.47,1.47.98,2.45,2.48,2.94,4.5.49,2.02.73,4.93.73,8.72,0,4.16-.49,7.23-1.47,9.18-.98,1.96-2.39,3.21-4.23,3.77-1.84.55-4.41.83-7.71.83-.3,0-.61,0-.92,0v-28.41Z"/>
      <path d="M1610.56,484.66h41.69l-33.24-115.53h-46.65l-34.16,115.53h42.8l2.96-17.82h23.32l3.29,17.82ZM1588.63,438.74l6.38-38.38,7.08,38.38h-13.46Z"/>
    </g>
  </g>
  <path d="M641.79,531.78c-2.11,3.98-7.28,5.29-11.02,2.81l-30.77-20.15c2.71-3.14,5.33-6.35,7.86-9.63l30.78,16.53c3.75,2.01,5.16,6.69,3.15,10.44Z"/>
</svg>